<svg xmlns="http://www.w3.org/2000/svg" version="1.1" xmlns:xlink="http://www.w3.org/1999/xlink" width="60" height="60"><svg width="60" height="60" viewBox="0 0 60 60" fill="none" xmlns="http://www.w3.org/2000/svg">
<rect width="60" height="60" rx="30" fill="#0036A5"></rect>
<path fill-rule="evenodd" clip-rule="evenodd" d="M29.694 20.2019C29.8641 20.2019 30.0034 20.3417 30.0034 20.5124V24.2445C30.0034 24.4156 29.8641 24.555 29.694 24.555C29.5238 24.555 29.3845 24.4156 29.3845 24.2445V20.5124C29.3845 20.3417 29.5238 20.2019 29.694 20.2019ZM29.5993 14.3692L44.5537 29.3744C44.9288 29.7504 45.5424 29.7504 45.9178 29.3744C46.2924 28.9981 46.2924 28.3825 45.9178 28.0058L30.2814 12.3169C29.9063 11.9406 29.2927 11.9406 28.9177 12.3169L15.6006 25.679L13.2813 28.0058C12.9062 28.3825 12.9062 28.9981 13.2813 29.3744C13.6563 29.7504 14.2699 29.7504 14.645 29.3744L29.5993 14.3692ZM18.5269 30.0534C19.0572 30.0534 19.491 30.4888 19.491 31.0209V45.0648H39.848V31.0209C39.848 30.4888 40.2819 30.0534 40.8122 30.0534C41.3425 30.0534 41.7764 30.4888 41.7764 31.0209V46.0322C41.7764 46.0407 41.7764 46.0489 41.776 46.0571C41.776 46.0653 41.7757 46.0735 41.7753 46.0816C41.7746 46.0902 41.7743 46.0984 41.7735 46.1065C41.7732 46.1147 41.7721 46.1225 41.7714 46.1307C41.7707 46.1389 41.7696 46.1471 41.7686 46.1549C41.7675 46.1631 41.7665 46.1709 41.7654 46.1791C41.764 46.1869 41.7626 46.1951 41.7615 46.2029C41.7601 46.2108 41.7583 46.2189 41.7569 46.2268C41.7551 46.2346 41.7533 46.2424 41.7516 46.2502C41.7498 46.2581 41.748 46.2655 41.7459 46.2734C41.7441 46.2812 41.742 46.2886 41.7395 46.2965C41.7374 46.3039 41.7353 46.3114 41.7328 46.3192C41.7307 46.3267 41.7282 46.3342 41.7253 46.3416C41.7232 46.3491 41.7204 46.3566 41.7175 46.3641C41.7151 46.3715 41.7122 46.3786 41.7094 46.3861C41.7034 46.4007 41.6973 46.4153 41.691 46.4295C41.6878 46.4366 41.6842 46.4437 41.681 46.4508C41.6775 46.4579 41.6739 46.4647 41.6704 46.4718C41.6668 46.4786 41.6633 46.4857 41.6594 46.4925C41.6559 46.4992 41.652 46.506 41.6481 46.5131C41.6364 46.533 41.6243 46.5529 41.6112 46.5721C41.6069 46.5785 41.6023 46.5853 41.5981 46.5913C41.5935 46.5977 41.5889 46.6038 41.5843 46.6102C41.5796 46.6166 41.575 46.6226 41.5701 46.6287C41.5655 46.6347 41.5605 46.6408 41.5555 46.6468C41.5506 46.6529 41.5456 46.6586 41.5407 46.6646C41.5353 46.6706 41.5304 46.6763 41.5251 46.682C41.5201 46.6877 41.5148 46.6934 41.5095 46.6991C41.4988 46.7101 41.4878 46.7211 41.4768 46.7318C41.4712 46.7372 41.4651 46.7425 41.4598 46.7475C41.4538 46.7528 41.4481 46.7581 41.4421 46.7631C41.4364 46.7681 41.4308 46.7731 41.4247 46.7781C41.4187 46.783 41.4127 46.788 41.4067 46.7926C41.4003 46.7976 41.3943 46.8022 41.3882 46.8069C41.3818 46.8115 41.3758 46.8161 41.3694 46.8207C41.3631 46.8254 41.3567 46.8296 41.3503 46.8339C41.3312 46.8471 41.3113 46.8595 41.2911 46.8712C41.2844 46.8752 41.2776 46.8787 41.2709 46.8826C41.2638 46.8865 41.2571 46.8897 41.25 46.8937C41.2432 46.8972 41.2362 46.9008 41.2291 46.904C41.2223 46.9072 41.2152 46.9107 41.2082 46.9139C41.194 46.9207 41.1794 46.9267 41.1649 46.9324C41.1575 46.9353 41.15 46.9381 41.1429 46.941C41.1355 46.9434 41.128 46.9463 41.1206 46.9488C41.1132 46.9513 41.1057 46.9538 41.0979 46.9563C41.0905 46.9584 41.083 46.9609 41.0756 46.963C41.0678 46.9651 41.06 46.9673 41.0525 46.9691C41.0447 46.9712 41.0369 46.973 41.0291 46.9747C41.0213 46.9769 41.0135 46.9783 41.0057 46.9801C40.9979 46.9815 40.9901 46.9833 40.9823 46.9847C40.9746 46.9861 40.9664 46.9872 40.9586 46.9886C40.9505 46.99 40.9426 46.9911 40.9345 46.9922C40.9267 46.9929 40.9185 46.994 40.9104 46.995C40.9022 46.9957 40.8941 46.9964 40.8863 46.9972C40.8778 46.9975 40.8696 46.9982 40.8615 46.9986C40.8533 46.9989 40.8452 46.9993 40.837 46.9996C40.8289 46.9996 40.8204 47 40.8122 47H18.5269C18.5187 47 18.5102 46.9996 18.502 46.9996C18.4939 46.9993 18.4857 46.9989 18.4776 46.9986C18.4694 46.9982 18.4613 46.9975 18.4531 46.9972C18.445 46.9964 18.4368 46.9957 18.4287 46.995C18.4205 46.994 18.4127 46.9929 18.4046 46.9922C18.3964 46.9911 18.3886 46.99 18.3808 46.9886C18.3727 46.9872 18.3649 46.9861 18.3567 46.9847C18.3489 46.9833 18.3411 46.9815 18.3333 46.9801C18.3255 46.9783 18.3177 46.9769 18.3099 46.9747C18.3021 46.973 18.2943 46.9712 18.2869 46.9691C18.2791 46.9673 18.2713 46.9651 18.2638 46.963C18.256 46.9609 18.2486 46.9584 18.2411 46.9563C18.2337 46.9538 18.2259 46.9513 18.2185 46.9488C18.211 46.9463 18.2036 46.9434 18.1965 46.941C18.189 46.9381 18.1816 46.9353 18.1741 46.9324C18.1671 46.9296 18.1596 46.9267 18.1525 46.9235C18.1454 46.9203 18.138 46.9171 18.1309 46.9139C18.1238 46.9107 18.1167 46.9072 18.1096 46.904C18.1029 46.9008 18.0958 46.8972 18.0891 46.8937C18.082 46.8897 18.0752 46.8865 18.0682 46.8826C18.0614 46.8787 18.0547 46.8752 18.048 46.8712C18.0412 46.8673 18.0345 46.8634 18.0277 46.8592C18.0214 46.8552 18.0146 46.851 18.0082 46.8467C18.0015 46.8428 17.9951 46.8385 17.9888 46.8339C17.9824 46.8296 17.976 46.8254 17.9696 46.8207C17.9636 46.8161 17.9572 46.8115 17.9508 46.8069C17.9448 46.8022 17.9388 46.7976 17.9324 46.7926C17.9264 46.788 17.9203 46.783 17.9143 46.7781C17.9086 46.7731 17.9026 46.7681 17.8969 46.7631C17.8909 46.7581 17.8852 46.7528 17.8796 46.7475C17.8735 46.7425 17.8682 46.7372 17.8626 46.7318C17.8569 46.7265 17.8516 46.7211 17.8459 46.7155C17.8406 46.7101 17.8353 46.7044 17.8296 46.6991C17.8243 46.6934 17.8193 46.6877 17.814 46.682C17.8087 46.6763 17.8037 46.6703 17.7984 46.6646C17.7934 46.6586 17.7885 46.6529 17.7835 46.6468C17.7785 46.6408 17.7736 46.6347 17.769 46.6287C17.7644 46.6226 17.7594 46.6166 17.7548 46.6102C17.7502 46.6038 17.7456 46.5977 17.7413 46.5913C17.7367 46.5853 17.7321 46.5785 17.7279 46.5721C17.7236 46.5657 17.7193 46.5593 17.7151 46.5526C17.7108 46.5462 17.7069 46.5398 17.703 46.533C17.6991 46.5262 17.6949 46.5195 17.691 46.5131C17.6871 46.506 17.6832 46.4992 17.6796 46.4925C17.6757 46.4857 17.6722 46.4786 17.6687 46.4718C17.6651 46.4647 17.6616 46.4579 17.658 46.4508C17.6548 46.4437 17.6513 46.4366 17.6481 46.4295C17.6449 46.4224 17.6421 46.4153 17.6389 46.4078C17.6357 46.4007 17.6325 46.3936 17.63 46.3861C17.6268 46.3786 17.624 46.3715 17.6215 46.3641C17.6187 46.3566 17.6162 46.3491 17.6134 46.3416C17.6109 46.3342 17.6084 46.3267 17.6063 46.3192C17.6038 46.3114 17.6017 46.3039 17.5995 46.2965C17.5974 46.2886 17.5953 46.2812 17.5932 46.2734C17.591 46.2655 17.5893 46.2581 17.5875 46.2502C17.5857 46.2424 17.5839 46.2346 17.5822 46.2268C17.5807 46.2189 17.5793 46.2108 17.5776 46.2029C17.5765 46.1951 17.5751 46.1869 17.574 46.1791C17.5726 46.1709 17.5715 46.1631 17.5705 46.1549C17.5694 46.1471 17.5683 46.1389 17.5676 46.1307C17.5669 46.1225 17.5662 46.1147 17.5655 46.1065C17.5648 46.0984 17.5644 46.0902 17.5641 46.0816C17.5634 46.0735 17.563 46.0653 17.563 46.0571C17.5627 46.0489 17.5627 46.0407 17.5627 46.0322V31.0209C17.5627 30.4888 17.9966 30.0534 18.5269 30.0534ZM40.8122 12C41.3425 12 41.7764 12.4353 41.7764 12.9674V19.3262C41.7764 19.8583 41.3425 20.2937 40.8122 20.2937C40.2819 20.2937 39.848 19.8583 39.848 19.3262V13.9352H37.2685V14.9045C37.2685 15.4365 36.8346 15.8723 36.3043 15.8723C35.774 15.8723 35.3401 15.4365 35.3401 14.9045V12.9674C35.3401 12.4353 35.774 12 36.3043 12C36.3174 12 36.3302 12.0004 36.3429 12.0007C36.3557 12.0004 36.3685 12 36.3812 12H40.6732C40.6966 12 40.7197 12.0011 40.7427 12.0025C40.7654 12.0011 40.7888 12 40.8122 12ZM30.7174 22.0062L30.6986 22.1268L30.5802 22.8777L30.2495 24.9776C30.2225 25.1394 30.3409 25.2781 30.5001 25.3158C30.6589 25.3535 30.8099 25.2262 30.8372 25.0647C30.9637 24.31 31.0818 23.5883 31.1948 22.8574C31.2555 22.4644 31.2473 22.496 31.3054 22.0913C31.3288 21.9276 31.231 21.7722 31.1006 21.7306C30.9474 21.6819 30.7535 21.7775 30.7174 22.0062ZM31.8457 22.7973L31.8077 22.9136L31.5738 23.6363L30.9184 25.658C30.8666 25.8138 30.962 25.9696 31.113 26.0318C31.264 26.094 31.4331 25.992 31.4852 25.8365C31.7283 25.1113 31.958 24.417 32.1838 23.7131C32.3051 23.3347 32.2923 23.3646 32.4128 22.974C32.4618 22.8161 32.3891 22.6472 32.2671 22.5856C32.1232 22.5134 31.9169 22.5771 31.8457 22.7973ZM32.8435 23.5851L32.7847 23.6922L32.4171 24.3566L31.3884 26.2153C31.3079 26.358 31.3717 26.5294 31.5082 26.6194C31.6447 26.7097 31.8301 26.6418 31.9109 26.4995C32.2877 25.834 32.6454 25.1967 33.0009 24.5493C33.1923 24.2008 33.1739 24.2278 33.3667 23.8675C33.4447 23.722 33.4057 23.5421 33.298 23.4585C33.1707 23.36 32.9555 23.3831 32.8435 23.5851ZM33.9094 24.3935L33.8272 24.4839L33.3136 25.0423L31.8776 26.6059C31.7659 26.7254 31.7875 26.9068 31.8988 27.0266C32.0105 27.1465 32.2065 27.1244 32.3182 27.0053C32.841 26.4479 33.3384 25.913 33.8361 25.3677C34.1037 25.0743 34.0796 25.096 34.3518 24.7919C34.4617 24.6688 34.466 24.4846 34.3805 24.3779C34.2802 24.252 34.0658 24.2235 33.9094 24.3935ZM34.7113 25.0594L34.6188 25.139L34.0431 25.6331L32.4327 27.0145C32.3076 27.1202 32.3079 27.3026 32.4043 27.4349C32.5007 27.5669 32.6982 27.5687 32.8233 27.4634C33.4079 26.9722 33.9647 26.5002 34.5234 26.0179C34.824 25.7583 34.7974 25.7771 35.1033 25.5072C35.2299 25.3955 35.2348 25.2031 35.1579 25.0864C35.0707 24.9548 34.8832 24.9125 34.7113 25.0594ZM36.3805 26.9007L36.2674 26.9466L35.5652 27.2311L33.6007 28.0279C33.4486 28.088 33.3908 28.2612 33.4405 28.4173C33.4901 28.5735 33.6765 28.6378 33.8286 28.5781C34.539 28.2985 35.2164 28.0282 35.8988 27.7494C36.2657 27.5993 36.2345 27.6085 36.6106 27.4502C36.9409 27.3108 36.7758 26.7403 36.3805 26.9007ZM35.4901 25.9763L35.3858 26.0396L34.7364 26.4309L32.9204 27.5256C32.7794 27.6089 32.7496 27.7892 32.8226 27.9357C32.896 28.0823 33.0906 28.1164 33.2313 28.0335C33.8892 27.6462 34.5163 27.2731 35.1466 26.8904C35.4858 26.6845 35.4564 26.6987 35.8031 26.4831C36.1076 26.2939 35.8559 25.7561 35.4901 25.9763ZM37.5705 27.998L34.1866 28.5557C34.025 28.5809 33.9307 28.7374 33.9452 28.9007C33.9594 29.0639 34.1274 29.1678 34.2887 29.1429C35.4482 28.964 36.5276 28.7901 37.6747 28.5848C37.8356 28.556 37.9438 28.4006 37.915 28.2391C37.8863 28.0776 37.7311 27.9692 37.5705 27.998ZM38.0437 29.4381L34.6149 29.4612C34.4514 29.4609 34.3341 29.6007 34.3228 29.7643C34.3114 29.9279 34.4614 30.0566 34.6248 30.0573C35.7978 30.0613 36.891 30.0577 38.0558 30.0342C38.2192 30.031 38.35 29.8941 38.3468 29.7305C38.3436 29.5665 38.2071 29.4349 38.0437 29.4381ZM38.093 30.8893L34.7219 30.2569C34.5617 30.2256 34.4199 30.3405 34.3781 30.4987C34.3359 30.657 34.4585 30.8124 34.6188 30.8441C35.7697 31.0721 36.8435 31.2773 37.9916 31.4768C38.1526 31.5046 38.3071 31.3954 38.3348 31.2339C38.3628 31.0724 38.2539 30.9174 38.093 30.8893ZM38.0271 32.4183L34.7885 31.2862C34.6347 31.2311 34.4777 31.3232 34.4121 31.4733C34.3469 31.6237 34.4451 31.7955 34.5989 31.851C35.7027 32.2494 36.7339 32.6139 37.8392 32.9839C37.9941 33.0354 38.1632 32.9508 38.2149 32.7953C38.2663 32.6396 38.182 32.4703 38.0271 32.4183ZM37.8218 34.0189L34.8229 32.3504C34.6808 32.2697 34.5103 32.3337 34.4206 32.4706C34.3306 32.6075 34.3983 32.7936 34.5401 32.8743C35.5602 33.4555 36.5145 33.9911 37.5407 34.5438C37.685 34.6217 37.8658 34.567 37.9431 34.4226C38.0203 34.2782 37.9657 34.0964 37.8218 34.0189ZM37.68 38.6573L34.9654 35.4707C34.8626 35.3434 34.6804 35.3402 34.5471 35.4348C34.4135 35.5294 34.4085 35.7272 34.5113 35.8549C35.5103 37.0944 36.1604 37.8577 37.227 39.0428C37.3362 39.1648 37.5301 39.1933 37.6456 39.0777C37.7609 38.9617 37.7892 38.7792 37.68 38.6573ZM37.6106 35.989L35.0094 33.7468C34.8864 33.639 34.7067 33.6671 34.5911 33.7831C34.4755 33.899 34.5043 34.0946 34.6273 34.2028C35.5092 34.9788 36.3358 35.6966 37.2298 36.4464C37.355 36.5513 37.5432 36.5346 37.6481 36.4087C37.7527 36.2831 37.736 36.0942 37.6106 35.989ZM28.6706 22.0062L28.6894 22.1268L28.8078 22.8777L29.1385 24.9776C29.1651 25.1394 29.0471 25.2781 28.8879 25.3158C28.7291 25.3535 28.5777 25.2262 28.5508 25.0647C28.4239 24.31 28.3058 23.5883 28.1931 22.8574C28.1325 22.4644 28.1407 22.496 28.0825 22.0913C28.0591 21.9276 28.1573 21.7722 28.2874 21.7306C28.4405 21.6819 28.6344 21.7775 28.6706 22.0062ZM27.5423 22.7973L27.5799 22.9136L27.8142 23.6363L28.4696 25.658C28.521 25.8138 28.426 25.9696 28.275 26.0318C28.124 26.094 27.9546 25.992 27.9025 25.8365C27.6593 25.1113 27.4299 24.417 27.2041 23.7131C27.0829 23.3347 27.0957 23.3646 26.9751 22.974C26.9262 22.8161 26.9985 22.6472 27.1208 22.5856C27.2644 22.5134 27.4711 22.5771 27.5423 22.7973ZM26.5441 23.5851L26.6033 23.6922L26.9709 24.3566L27.9992 26.2153C28.0797 26.358 28.0162 26.5294 27.8798 26.6194C27.7433 26.7097 27.5579 26.6418 27.4771 26.4995C27.1003 25.834 26.7426 25.1967 26.3871 24.5493C26.1956 24.2008 26.2141 24.2278 26.0209 23.8675C25.9432 23.722 25.9822 23.5421 26.0904 23.4585C26.2176 23.36 26.4324 23.3831 26.5441 23.5851ZM25.4782 24.3935L25.5611 24.4839L26.0744 25.0423L27.5104 26.6059C27.6221 26.7254 27.6004 26.9068 27.4891 27.0266C27.3775 27.1465 27.1814 27.1244 27.0694 27.0053C26.5469 26.4479 26.0496 25.913 25.5519 25.3677C25.2843 25.0743 25.3084 25.096 25.0361 24.7919C24.9262 24.6688 24.922 24.4846 25.0074 24.3779C25.1077 24.252 25.3222 24.2235 25.4782 24.3935ZM24.6767 25.0594L24.7692 25.139L25.3449 25.6331L26.9553 27.0145C27.0804 27.1202 27.0801 27.3026 26.9836 27.4349C26.8872 27.5669 26.6898 27.5687 26.5647 27.4634C25.9798 26.9722 25.4232 26.5002 24.8646 26.0179C24.564 25.7583 24.5906 25.7771 24.2843 25.5072C24.1577 25.3955 24.1528 25.2031 24.2301 25.0864C24.3169 24.9548 24.5051 24.9125 24.6767 25.0594ZM23.0075 26.9007L23.1205 26.9466L23.8228 27.2311L25.7873 28.0279C25.9394 28.088 25.9968 28.2612 25.9475 28.4173C25.8979 28.5735 25.7111 28.6378 25.559 28.5781C24.849 28.2985 24.1716 28.0282 23.4892 27.7494C23.122 27.5993 23.1531 27.6085 22.7774 27.4502C22.447 27.3108 22.6122 26.7403 23.0075 26.9007ZM23.8976 25.9763L24.0021 26.0396L24.6515 26.4309L26.4679 27.5256C26.6083 27.6089 26.6384 27.7892 26.565 27.9357C26.492 28.0823 26.2974 28.1164 26.1566 28.0335C25.4987 27.6462 24.8717 27.2731 24.2414 26.8904C23.9022 26.6845 23.9316 26.6987 23.5849 26.4831C23.2801 26.2939 23.5321 25.7561 23.8976 25.9763ZM21.8175 27.998L25.2013 28.5557C25.363 28.5809 25.4569 28.7374 25.4427 28.9007C25.4285 29.0639 25.2605 29.1678 25.0989 29.1429C23.9397 28.964 22.8603 28.7901 21.7133 28.5848C21.5527 28.556 21.4446 28.4006 21.4729 28.2391C21.5016 28.0776 21.6565 27.9692 21.8175 27.998ZM21.3442 29.4381L24.7735 29.4612C24.9365 29.4609 25.0539 29.6007 25.0652 29.7643C25.0765 29.9279 24.9266 30.0566 24.7632 30.0573C23.5902 30.0613 22.497 30.0577 21.3322 30.0342C21.1688 30.031 21.038 29.8941 21.0412 29.7305C21.0444 29.5665 21.1808 29.4349 21.3442 29.4381ZM21.295 30.8893L24.6657 30.2569C24.8263 30.2256 24.9677 30.3405 25.0099 30.4987C25.0521 30.657 24.9294 30.8124 24.7692 30.8441C23.6182 31.0721 22.5445 31.2773 21.3964 31.4768C21.2354 31.5046 21.0809 31.3954 21.0532 31.2339C21.0252 31.0724 21.134 30.9174 21.295 30.8893ZM21.3609 32.4183L24.5994 31.2862C24.7533 31.2311 24.9103 31.3232 24.9755 31.4733C25.0407 31.6237 24.9426 31.7955 24.7891 31.851C23.6852 32.2494 22.6544 32.6139 21.5488 32.9839C21.3939 33.0354 21.2248 32.9508 21.1734 32.7953C21.1216 32.6396 21.206 32.4703 21.3609 32.4183ZM21.5658 34.0189L24.565 32.3504C24.7072 32.2697 24.8777 32.3337 24.9677 32.4706C25.0574 32.6075 24.9897 32.7936 24.8476 32.8743C23.8277 33.4555 22.8735 33.9911 21.8469 34.5438C21.703 34.6217 21.5222 34.567 21.4449 34.4226C21.3676 34.2782 21.4219 34.0964 21.5658 34.0189ZM21.7079 38.6573L24.4222 35.4707C24.5253 35.3434 24.7075 35.3402 24.8408 35.4348C24.9745 35.5294 24.9794 35.7272 24.8766 35.8549C23.8777 37.0944 23.2272 37.8577 22.161 39.0428C22.0514 39.1648 21.8579 39.1933 21.7423 39.0777C21.6268 38.9617 21.5988 38.7792 21.7079 38.6573ZM21.7771 35.989L24.3782 33.7468C24.5012 33.639 24.6813 33.6671 24.7969 33.7831C24.9124 33.899 24.8837 34.0946 24.7607 34.2028C23.8788 34.9788 23.0521 35.6966 22.1581 36.4464C22.033 36.5513 21.8448 36.5346 21.7398 36.4087C21.6349 36.2831 21.6519 36.0942 21.7771 35.989Z" fill="white" stroke="white" stroke-width="0.121099" stroke-miterlimit="22.9256"></path>
<path fill-rule="evenodd" clip-rule="evenodd" d="M31.7928 30.0663C31.7151 30.0481 31.6531 30.0577 31.5946 30.0531C31.5361 30.0481 31.4812 30.0293 31.4106 30.004C31.3401 29.9788 31.2543 29.9475 31.2079 29.908C31.1611 29.8685 31.154 29.8205 31.1434 29.7487C31.1327 29.6768 31.1182 29.5808 31.087 29.4983C31.0562 29.4157 31.0083 29.346 30.9523 29.2873C30.8959 29.2287 30.8314 29.1806 30.7708 29.1497C30.7098 29.1184 30.6524 29.1042 30.5999 29.0967C30.5475 29.0896 30.4996 29.0896 30.4472 29.0611C30.3943 29.0323 30.3373 28.9747 30.3086 28.9135C30.2799 28.8523 30.2799 28.7876 30.2728 28.7385C30.2653 28.6894 30.2511 28.656 30.2033 28.6283C30.1554 28.6009 30.0743 28.5792 30.0076 28.5514C29.9406 28.5241 29.8882 28.4906 29.801 28.4668C29.7138 28.4426 29.5918 28.4284 29.5035 28.4319C29.4153 28.4355 29.3603 28.4568 29.3196 28.4871C29.2792 28.5169 29.2529 28.5554 29.2111 28.5852C29.1693 28.6151 29.1118 28.6368 29.0619 28.656C29.0119 28.6752 28.9686 28.6919 28.9353 28.7304C28.902 28.7684 28.8779 28.8285 28.8697 28.8847C28.8612 28.9409 28.8683 28.9939 28.8612 29.0369C28.8541 29.08 28.8325 29.1138 28.7811 29.134C28.7297 29.1543 28.6485 29.1614 28.5734 29.1796C28.4982 29.1977 28.4288 29.2262 28.3834 29.2635C28.338 29.3005 28.3168 29.346 28.2997 29.382C28.2831 29.4179 28.2714 29.4442 28.2498 29.4684C28.2281 29.4922 28.1973 29.5139 28.1686 29.5473C28.1399 29.5808 28.1136 29.6267 28.1005 29.6779C28.0874 29.7294 28.0874 29.7871 28.0732 29.8518C28.0587 29.9165 28.03 29.9884 27.9523 30.0314C27.8747 30.0745 27.7482 30.089 27.6443 30.1093C27.5404 30.1296 27.4593 30.1559 27.3852 30.1968C27.3111 30.2374 27.2445 30.2928 27.175 30.3441C27.1059 30.3956 27.0342 30.4436 26.9804 30.4977C26.9265 30.5514 26.891 30.6115 26.8598 30.7132C26.8287 30.815 26.8024 30.9587 26.7787 31.086C26.7546 31.213 26.7333 31.3232 26.7163 31.4395C26.6996 31.5555 26.6879 31.6778 26.7142 31.819C26.7404 31.9606 26.8049 32.121 26.8634 32.2576C26.9219 32.3942 26.9743 32.5069 27.0435 32.6126C27.1129 32.7178 27.1987 32.816 27.2898 32.8999C27.3806 32.9839 27.4759 33.0532 27.5752 33.1155C27.6741 33.1781 27.7769 33.2332 27.869 33.2752C27.9609 33.3172 28.042 33.3456 28.1151 33.3805C28.1877 33.4153 28.2522 33.4559 28.3047 33.4978C28.3572 33.5398 28.3979 33.5832 28.4025 33.6202C28.4075 33.6572 28.3763 33.6885 28.3274 33.7016C28.2785 33.7148 28.2115 33.7098 28.1576 33.7198C28.1041 33.729 28.0633 33.7532 28.0314 33.8083C27.9991 33.8635 27.975 33.9496 27.98 34.031C27.9846 34.1125 28.0183 34.1893 28.0814 34.254C28.1445 34.3187 28.2377 34.3714 28.338 34.3821C28.4383 34.3931 28.5457 34.3618 28.6021 34.3091C28.6581 34.2565 28.6631 34.1822 28.6808 34.1235C28.6989 34.0648 28.7297 34.0214 28.7811 33.9951C28.8325 33.9688 28.9041 33.9592 28.9651 34.0118C29.0261 34.0648 29.076 34.1797 29.0941 34.2778C29.1118 34.376 29.0977 34.4575 29.07 34.5257C29.0427 34.594 29.002 34.6492 28.958 34.7367C28.9137 34.8245 28.8658 34.944 28.8481 35.0674C28.83 35.1909 28.8421 35.3178 28.8623 35.4452C28.8829 35.5721 28.9112 35.6988 28.9399 35.7927C28.9686 35.8859 28.9973 35.946 29.0129 36.0285C29.0704 36.3358 29.0583 36.8291 29.0799 37.161C29.0934 37.3672 29.1037 37.4629 29.1235 37.5711C29.1434 37.6792 29.1728 37.7994 29.181 37.9107C29.1888 38.022 29.1753 38.1238 29.1707 38.2443C29.1661 38.3646 29.1707 38.5029 29.182 38.6662C29.1934 38.8294 29.2115 39.0179 29.2146 39.1222C29.2182 39.2267 29.2068 39.247 29.1593 39.2538C29.1118 39.2605 29.0282 39.2538 28.9537 39.2434C28.879 39.2335 28.8134 39.2196 28.7457 39.2175C28.6776 39.2153 28.6074 39.2242 28.5578 39.2481C28.5082 39.2719 28.4787 39.3107 28.4639 39.3868C28.4493 39.4625 28.4493 39.576 28.4426 39.6532C28.4359 39.7304 28.422 39.7709 28.3859 39.778C28.3497 39.7848 28.2909 39.7574 28.2561 39.6984C28.2207 39.6393 28.2097 39.5486 28.2062 39.4704C28.2047 39.4352 28.2047 39.4028 28.2054 39.3733H28.2083V39.2797C28.2086 39.2708 28.2086 39.2623 28.2083 39.2545V39.0667H26.9286V39.3733H26.9329C26.9265 39.4455 26.9346 39.5344 26.9421 39.6329C26.9524 39.7666 26.9616 39.9185 26.9658 40.0231C26.9704 40.1273 26.9704 40.1842 26.9963 40.2134C27.0225 40.2429 27.0743 40.2454 27.1378 40.2454C27.2012 40.2454 27.2756 40.2429 27.3593 40.2351C27.443 40.2272 27.5358 40.2134 27.5936 40.1952C27.651 40.1771 27.6737 40.1547 27.6883 40.1284C27.7031 40.1024 27.7099 40.0729 27.6872 40.0377C27.6645 40.0025 27.6128 39.9616 27.5458 39.9413C27.4795 39.9207 27.3979 39.9207 27.3504 39.878C27.3029 39.8346 27.2895 39.7485 27.3164 39.6848C27.3437 39.6212 27.4114 39.5806 27.5096 39.5703C27.6081 39.56 27.7372 39.5806 27.8162 39.6201C27.8953 39.6599 27.9247 39.719 27.9314 39.7858C27.9382 39.8527 27.9222 39.9278 27.9155 39.9989C27.9087 40.0707 27.9112 40.1387 27.9609 40.1501C28.0105 40.1614 28.1076 40.1159 28.1792 40.1035C28.2505 40.091 28.2955 40.1113 28.3295 40.1365C28.3635 40.1614 28.3859 40.191 28.4234 40.1931C28.4607 40.1952 28.5128 40.1703 28.5465 40.1444C28.5805 40.1184 28.5964 40.091 28.6436 40.0889C28.6911 40.0864 28.7701 40.1092 28.829 40.1422C28.8878 40.175 28.9265 40.218 28.9626 40.2475C28.9988 40.277 29.0324 40.293 29.0463 40.261C29.0597 40.2294 29.053 40.1501 29.0608 40.0889C29.069 40.0277 29.0913 39.9843 29.1289 39.9662C29.1661 39.948 29.2182 39.9548 29.2384 39.9946C29.2586 40.0341 29.2476 40.107 29.2476 40.2283C29.2476 40.3496 29.2586 40.52 29.2487 40.6071C29.2384 40.6946 29.2068 40.6989 29.1739 40.6878C29.1413 40.6765 29.1072 40.6491 29.0835 40.6153C29.0597 40.5811 29.0463 40.5402 28.9864 40.5075C28.9265 40.4744 28.8201 40.4495 28.7308 40.4371C28.6415 40.4246 28.5691 40.4246 28.4819 40.4246C28.3951 40.4246 28.2934 40.4246 28.2186 40.4246C28.1441 40.4246 28.0966 40.4246 28.0651 40.4449C28.0332 40.4655 28.0172 40.5061 28.0094 40.5527C28.0016 40.5993 28.0016 40.6516 27.9924 40.7106C27.9835 40.7693 27.9655 40.8351 27.9293 40.8771C27.8931 40.919 27.8389 40.9372 27.7755 40.9486C27.712 40.9599 27.6397 40.9646 27.5663 40.9542C27.4929 40.9439 27.4181 40.919 27.382 40.8828C27.3458 40.8465 27.348 40.7988 27.3855 40.7707C27.4228 40.7423 27.4951 40.733 27.5606 40.7298C27.6262 40.7263 27.6851 40.7287 27.7212 40.69C27.7574 40.6516 27.7709 40.5719 27.7719 40.5143C27.7733 40.4563 27.762 40.42 27.7131 40.4019C27.6645 40.3837 27.5787 40.3837 27.4522 40.3813C27.3256 40.3791 27.1583 40.3745 27.0732 40.3884C26.9885 40.4019 26.9864 40.4335 26.9875 40.5129C26.9885 40.5925 26.9931 40.7195 26.9977 40.8454C27.002 40.9713 27.0066 41.0962 27.0091 41.2075C27.0101 41.2694 27.0109 41.3274 27.0109 41.3754L27.0105 41.5849H27.6362C27.6517 41.5863 27.667 41.5874 27.6815 41.5884C27.8637 41.6019 27.9835 41.6019 28.0626 41.5941C28.0856 41.5916 28.1051 41.5888 28.1221 41.5849H28.2288V41.4369C28.2299 41.418 28.2299 41.3974 28.2288 41.3754C28.2253 41.3049 28.2118 41.2185 28.204 41.146C28.1962 41.0734 28.1937 41.0144 28.1973 40.9759C28.2005 40.9372 28.2097 40.919 28.2547 40.9226C28.3001 40.9258 28.3816 40.951 28.4234 41.0065C28.4649 41.062 28.4674 41.1484 28.4685 41.2185C28.4695 41.2889 28.4695 41.3434 28.4901 41.3935C28.5103 41.4433 28.5511 41.4888 28.6269 41.5112C28.7024 41.534 28.8134 41.534 28.913 41.5237C29.0122 41.5134 29.1005 41.4931 29.1604 41.508C29.2203 41.5226 29.2519 41.5724 29.2657 41.6144C29.2792 41.6567 29.2746 41.6905 29.2327 41.7154C29.1909 41.7403 29.1118 41.7563 28.7262 41.7552C28.3409 41.7542 27.6489 41.736 27.3029 41.7325C26.957 41.7293 26.957 41.7403 26.9545 41.7744C26.9524 41.8086 26.9478 41.8651 26.9502 41.8936C26.9524 41.922 26.9616 41.922 27.5007 41.9164C28.0399 41.9107 29.1094 41.8993 29.6421 41.8936C30.1746 41.8879 30.17 41.8879 30.1678 41.8868C30.1654 41.8858 30.1654 41.8833 30.1632 40.9215C30.1611 39.9594 30.1565 38.0377 30.1565 37.077C30.1565 36.116 30.1611 36.116 30.1721 36.1114C30.1834 36.1071 30.2019 36.0978 30.2199 36.0708C30.238 36.0434 30.2561 35.9979 30.2752 35.931C30.2944 35.8642 30.3149 35.7756 30.3249 35.6927C30.3352 35.6102 30.3352 35.533 30.3238 35.4253C30.3125 35.3175 30.2898 35.1791 30.2809 35.06C30.2717 34.9408 30.2763 34.8409 30.2809 34.7263C30.2852 34.6118 30.2898 34.4824 30.2887 34.36C30.2877 34.2373 30.2809 34.1217 30.2912 34.0584C30.3011 33.9947 30.3284 33.9833 30.3894 34.0118C30.4504 34.0402 30.5454 34.1082 30.5929 34.1548C30.6404 34.201 30.6404 34.2263 30.6552 34.2476C30.6698 34.2693 30.6992 34.2874 30.7276 34.2953C30.7556 34.3034 30.7829 34.301 30.8406 34.2906C30.8981 34.2807 30.9863 34.2625 31.037 34.2455C31.0881 34.2284 31.1015 34.2124 31.1253 34.1772C31.149 34.1423 31.1831 34.0876 31.2001 34.0605C31.2171 34.0331 31.2171 34.0331 31.2228 33.9986C31.2288 33.9638 31.2405 33.8944 31.2323 33.8379C31.2242 33.7813 31.1965 33.7376 31.1494 33.7052C31.1026 33.6732 31.0363 33.6522 30.9998 33.6305C30.9633 33.6085 30.9566 33.5857 30.9668 33.5537C30.9771 33.5213 31.0051 33.4793 31.0547 33.4505C31.1044 33.4217 31.1756 33.4061 31.2582 33.3783C31.3408 33.3502 31.4347 33.31 31.5017 33.2812C31.5687 33.2524 31.6088 33.235 31.701 33.1407C31.7931 33.0465 31.9374 32.8754 32.0278 32.7637C32.1185 32.652 32.1547 32.5998 32.1976 32.5247C32.2401 32.4497 32.2887 32.3519 32.3348 32.2601C32.3808 32.1687 32.4244 32.0833 32.4585 31.9855C32.4922 31.8877 32.5166 31.7778 32.5297 31.6807C32.5428 31.5839 32.5446 31.5004 32.5428 31.3894C32.5411 31.2788 32.5358 31.1408 32.5141 31.0291C32.4922 30.9174 32.4539 30.8317 32.4166 30.741C32.3791 30.6503 32.3429 30.5543 32.2827 30.4593C32.2227 30.364 32.1391 30.2697 32.0512 30.2C31.9629 30.1299 31.87 30.0844 31.7928 30.0663ZM30.0852 30.1989C30.1203 30.1858 30.1551 30.1815 30.1941 30.1733C30.2331 30.1655 30.2763 30.1541 30.305 30.1445C30.3341 30.1353 30.3483 30.1278 30.3671 30.094C30.3858 30.0599 30.4089 29.999 30.416 29.9436C30.4234 29.8877 30.4146 29.8372 30.3915 29.7906C30.3685 29.7444 30.3309 29.7028 30.2834 29.6786C30.2359 29.6548 30.1781 29.6491 30.1292 29.6512C30.0803 29.6533 30.0399 29.6636 30.0037 29.6779C29.9676 29.6925 29.936 29.7113 29.8977 29.7337C29.8594 29.7561 29.8148 29.7821 29.7839 29.7988C29.7527 29.8155 29.7354 29.8226 29.7095 29.8248C29.6836 29.8269 29.6489 29.8241 29.6301 29.8184C29.6113 29.8127 29.6085 29.8038 29.6042 29.7917C29.6 29.7792 29.5939 29.7632 29.5659 29.7415C29.5379 29.7198 29.4876 29.6925 29.4447 29.67C29.4025 29.6476 29.3678 29.6302 29.3224 29.6092C29.277 29.5882 29.2207 29.5637 29.1746 29.552C29.1285 29.5406 29.0924 29.542 29.0526 29.5609C29.0129 29.5797 28.9697 29.6156 28.935 29.6562C28.9006 29.6967 28.8747 29.7415 28.8609 29.7924C28.8471 29.8429 28.8456 29.8995 28.8541 29.9514C28.863 30.0037 28.8818 30.0513 28.9293 30.0855C28.9768 30.1193 29.0534 30.1395 29.1104 30.1499C29.1671 30.1598 29.2047 30.1598 29.22 30.1815C29.2352 30.2032 29.2278 30.2466 29.1881 30.2807C29.1484 30.3145 29.0764 30.3391 29.003 30.3387C28.9293 30.3377 28.8541 30.3117 28.8109 30.3081C28.768 30.3046 28.7563 30.3234 28.7556 30.364C28.7549 30.4042 28.7648 30.4664 28.7864 30.5151C28.8081 30.5635 28.8414 30.5984 28.874 30.6243C28.9062 30.6503 28.9382 30.6677 28.9654 30.6916C28.9927 30.7154 29.0158 30.746 29.0324 30.7869C29.0491 30.8281 29.059 30.8804 29.0569 30.9238C29.0548 30.9672 29.0402 31.0021 29.0222 31.0287C29.0044 31.0554 28.9828 31.0743 28.9669 31.1016C28.9509 31.1294 28.941 31.1653 28.9321 31.2066C28.9236 31.2478 28.9162 31.2941 28.8928 31.3325C28.8687 31.3709 28.8283 31.4011 28.7513 31.4257C28.6741 31.4506 28.5603 31.4694 28.4571 31.4737C28.354 31.478 28.2618 31.468 28.1874 31.4267C28.1133 31.3855 28.0569 31.3129 28.0424 31.2507C28.0282 31.1884 28.0555 31.1365 28.1044 31.1283C28.1533 31.1205 28.2242 31.1568 28.2802 31.1906C28.3366 31.2247 28.3784 31.2567 28.4245 31.2674C28.4706 31.2784 28.5213 31.2681 28.5415 31.2268C28.5617 31.1856 28.5514 31.1134 28.5241 31.0511C28.4968 30.9889 28.4518 30.937 28.3951 30.9064C28.338 30.8761 28.2689 30.8673 28.2005 30.8804C28.1321 30.8932 28.064 30.9281 28.0013 30.9615C27.9385 30.9946 27.8811 31.0266 27.8325 31.0693C27.7843 31.112 27.7453 31.1653 27.718 31.2429C27.6907 31.3204 27.6748 31.4214 27.6617 31.5409C27.6489 31.6604 27.6386 31.7977 27.661 31.946C27.6833 32.0943 27.7382 32.2537 27.796 32.3967C27.8534 32.54 27.9141 32.6673 27.9832 32.763C28.0527 32.8583 28.1303 32.922 28.2097 32.985C28.2891 33.0479 28.3699 33.1102 28.439 33.1557C28.5082 33.2012 28.5659 33.2304 28.6454 33.2585C28.7248 33.2866 28.8254 33.3143 28.8985 33.3214C28.9711 33.3285 29.0158 33.3157 29.0374 33.2773C29.059 33.2389 29.0576 33.1752 29.0519 33.1226C29.0463 33.0696 29.036 33.0276 29.0399 32.9618C29.0431 32.896 29.0604 32.8064 29.0987 32.7499C29.137 32.6933 29.1962 32.6702 29.248 32.6673C29.3001 32.6645 29.3447 32.6819 29.3742 32.7239C29.4036 32.7659 29.4181 32.8324 29.421 32.9163C29.4238 33.0002 29.4153 33.1016 29.4334 33.1703C29.4514 33.2389 29.4961 33.2752 29.5645 33.2955C29.6329 33.3157 29.7254 33.32 29.7917 33.309C29.858 33.2983 29.8984 33.2723 29.9222 33.2446C29.9459 33.2172 29.953 33.1884 29.9396 33.1535C29.9257 33.1187 29.891 33.0785 29.8789 33.0184C29.8669 32.9583 29.8768 32.8786 29.8963 32.8171C29.9158 32.7555 29.9445 32.7122 29.9963 32.6926C30.0484 32.6734 30.1232 32.6777 30.1732 32.7178C30.2228 32.7587 30.2472 32.8352 30.2575 32.9064C30.2674 32.9771 30.2632 33.0422 30.2749 33.0892C30.2862 33.1361 30.3135 33.1649 30.355 33.1856C30.3961 33.2058 30.4507 33.2172 30.5085 33.2222C30.5663 33.2272 30.6265 33.2257 30.6857 33.2026C30.7449 33.1795 30.8027 33.1347 30.8676 33.0821C30.9324 33.0291 31.0044 32.9686 31.065 32.9039C31.1256 32.8395 31.1746 32.7715 31.2192 32.7086C31.2642 32.6456 31.3043 32.588 31.35 32.5051C31.3954 32.423 31.4457 32.3159 31.4833 32.2341C31.5205 32.1523 31.5453 32.0958 31.567 32.0125C31.5886 31.9293 31.6074 31.8194 31.6166 31.7116C31.6262 31.6039 31.6262 31.4982 31.6152 31.3883C31.6045 31.2784 31.5826 31.1639 31.5358 31.0664C31.489 30.9686 31.417 30.8875 31.3273 30.832C31.238 30.7762 31.1313 30.7456 31.0289 30.7371C30.9268 30.7285 30.8286 30.7413 30.7513 30.7812C30.6744 30.821 30.618 30.8875 30.5999 30.9722C30.5819 31.0568 30.6021 31.1596 30.6308 31.2094C30.6599 31.2596 30.6974 31.2567 30.7343 31.2315C30.7708 31.2059 30.807 31.1582 30.846 31.1251C30.8849 31.0917 30.9268 31.0728 30.9711 31.0792C31.0161 31.086 31.0636 31.1177 31.093 31.1625C31.1228 31.2073 31.1341 31.2653 31.1334 31.3204C31.1327 31.3752 31.12 31.4274 31.0781 31.4666C31.0363 31.5053 30.9654 31.5317 30.8857 31.5324C30.8055 31.5331 30.7159 31.5085 30.634 31.478C30.5517 31.4477 30.4766 31.4114 30.4319 31.3652C30.3873 31.319 30.3731 31.2624 30.3642 31.1945C30.3554 31.1262 30.3525 31.0469 30.349 30.9743C30.3454 30.9021 30.3412 30.837 30.3504 30.7844C30.36 30.7314 30.383 30.6908 30.4046 30.6603C30.4263 30.63 30.4465 30.6097 30.4603 30.5728C30.4738 30.5361 30.4812 30.4824 30.4528 30.4426C30.4248 30.4027 30.3614 30.3768 30.2834 30.3629C30.2054 30.3494 30.1132 30.348 30.059 30.3451C30.0051 30.3419 29.9892 30.3377 29.9821 30.3227C29.975 30.3074 29.9764 30.2815 29.9949 30.2576C30.0136 30.2334 30.0498 30.2121 30.0852 30.1989ZM29.6315 28.6496L29.7304 28.7488H29.8704V28.8893L29.9693 28.9886L29.8704 29.0878V29.2283H29.7304L29.6315 29.3275L29.5323 29.2283H29.3926V29.0878L29.2933 28.9886L29.3926 28.8893V28.7488H29.5323L29.6315 28.6496Z" fill="white" stroke="white" stroke-width="0.121099" stroke-miterlimit="22.9256"></path>
</svg><style>@media (prefers-color-scheme: light) { :root { filter: none; } }
@media (prefers-color-scheme: dark) { :root { filter: none; } }
</style></svg>