<svg width="43" height="45" viewBox="0 0 43 45" fill="none" xmlns="http://www.w3.org/2000/svg">
<path fillRule="evenodd" clipRule="evenodd" d="M21.7336 11.1866C21.9449 11.1866 22.1179 11.3602 22.1179 11.5722V16.2074C22.1179 16.4199 21.9449 16.5931 21.7336 16.5931C21.5222 16.5931 21.3492 16.4199 21.3492 16.2074V11.5722C21.3492 11.3602 21.5222 11.1866 21.7336 11.1866ZM21.616 3.94245L40.189 22.5787C40.6548 23.0456 41.4169 23.0456 41.8831 22.5787C42.3485 22.1113 42.3485 21.3467 41.8831 20.8789L22.4631 1.39359C21.9973 0.926229 21.2352 0.926229 20.7694 1.39359L4.22993 17.989L1.34934 20.8789C0.883553 21.3467 0.883553 22.1113 1.34934 22.5787C1.81513 23.0456 2.57721 23.0456 3.043 22.5787L21.616 3.94245ZM7.86423 23.422C8.52285 23.422 9.06172 23.9627 9.06172 24.6235V42.0657H34.3446V24.6235C34.3446 23.9627 34.8835 23.422 35.5421 23.422C36.2008 23.422 36.7396 23.9627 36.7396 24.6235V43.2673C36.7396 43.2779 36.7396 43.288 36.7392 43.2982C36.7392 43.3083 36.7388 43.3185 36.7383 43.3287C36.7374 43.3393 36.737 43.3494 36.7361 43.3596C36.7357 43.3697 36.7344 43.3795 36.7335 43.3896C36.7326 43.3998 36.7313 43.4099 36.7299 43.4197C36.7286 43.4298 36.7273 43.4395 36.726 43.4497C36.7242 43.4594 36.7225 43.4696 36.7211 43.4793C36.7194 43.489 36.7172 43.4992 36.7154 43.5089C36.7132 43.5186 36.711 43.5283 36.7088 43.538C36.7066 43.5478 36.7044 43.557 36.7018 43.5667C36.6996 43.5765 36.6969 43.5857 36.6938 43.5955C36.6912 43.6047 36.6886 43.614 36.6855 43.6237C36.6828 43.633 36.6798 43.6423 36.6762 43.6516C36.6736 43.6608 36.6701 43.6701 36.6665 43.6794C36.6635 43.6887 36.6599 43.6975 36.6564 43.7068C36.6489 43.7249 36.6415 43.743 36.6335 43.7607C36.6296 43.7695 36.6252 43.7783 36.6212 43.7872C36.6168 43.796 36.6124 43.8044 36.608 43.8132C36.6036 43.8216 36.5992 43.8305 36.5943 43.8389C36.5899 43.8473 36.5851 43.8557 36.5803 43.8645C36.5657 43.8892 36.5508 43.914 36.5345 43.9378C36.5292 43.9458 36.5235 43.9542 36.5182 43.9617C36.5125 43.9696 36.5067 43.9771 36.501 43.9851C36.4953 43.993 36.4896 44.0005 36.4834 44.0081C36.4777 44.0156 36.4715 44.0231 36.4654 44.0306C36.4592 44.0381 36.453 44.0452 36.4469 44.0527C36.4403 44.0602 36.4341 44.0672 36.4275 44.0743C36.4213 44.0814 36.4147 44.0885 36.4081 44.0955C36.3949 44.1092 36.3813 44.1229 36.3676 44.1362C36.3606 44.1428 36.3531 44.1494 36.3465 44.1556C36.339 44.1622 36.332 44.1688 36.3245 44.175C36.3174 44.1812 36.3104 44.1874 36.3029 44.1936C36.2954 44.1998 36.2879 44.206 36.2804 44.2117C36.2725 44.2179 36.265 44.2236 36.2576 44.2294C36.2496 44.2351 36.2421 44.2408 36.2342 44.2466C36.2263 44.2523 36.2184 44.2576 36.2104 44.2629C36.1867 44.2793 36.162 44.2947 36.1369 44.3093C36.1286 44.3142 36.1202 44.3186 36.1118 44.3235C36.103 44.3283 36.0947 44.3323 36.0859 44.3372C36.0775 44.3416 36.0687 44.346 36.0599 44.35C36.0515 44.3539 36.0427 44.3584 36.0339 44.3623C36.0163 44.3707 35.9982 44.3782 35.9802 44.3853C35.971 44.3888 35.9617 44.3924 35.9529 44.3959C35.9436 44.399 35.9344 44.4025 35.9252 44.4056C35.9159 44.4087 35.9067 44.4118 35.897 44.4149C35.8877 44.4175 35.8785 44.4206 35.8692 44.4233C35.8596 44.4259 35.8499 44.4286 35.8406 44.4308C35.831 44.4334 35.8213 44.4357 35.8116 44.4379C35.8019 44.4405 35.7922 44.4423 35.7825 44.4445C35.7728 44.4463 35.7631 44.4485 35.7535 44.4502C35.7438 44.452 35.7337 44.4533 35.724 44.4551C35.7138 44.4569 35.7042 44.4582 35.694 44.4595C35.6843 44.4604 35.6742 44.4617 35.6641 44.463C35.654 44.4639 35.6438 44.4648 35.6342 44.4657C35.6236 44.4661 35.6135 44.467 35.6033 44.4675C35.5932 44.4679 35.5831 44.4683 35.573 44.4688C35.5628 44.4688 35.5523 44.4692 35.5421 44.4692H7.86423C7.8541 44.4692 7.84353 44.4688 7.83341 44.4688C7.82328 44.4683 7.81316 44.4679 7.80303 44.4675C7.79291 44.467 7.78278 44.4661 7.77265 44.4657C7.76253 44.4648 7.7524 44.4639 7.74228 44.463C7.73215 44.4617 7.72246 44.4604 7.71234 44.4595C7.70221 44.4582 7.69253 44.4569 7.68284 44.4551C7.67272 44.4533 7.66303 44.452 7.6529 44.4502C7.64322 44.4485 7.63353 44.4463 7.62385 44.4445C7.61416 44.4423 7.60448 44.4405 7.59479 44.4379C7.58511 44.4357 7.57542 44.4334 7.56617 44.4308C7.55649 44.4286 7.5468 44.4259 7.53756 44.4233C7.52787 44.4206 7.51863 44.4175 7.50938 44.4149C7.50014 44.4118 7.49045 44.4087 7.4812 44.4056C7.47196 44.4025 7.46272 44.399 7.45391 44.3959C7.44466 44.3924 7.43542 44.3888 7.42617 44.3853C7.41737 44.3818 7.40812 44.3782 7.39932 44.3743C7.39051 44.3703 7.38127 44.3663 7.37246 44.3623C7.36366 44.3584 7.35485 44.3539 7.34605 44.35C7.33768 44.346 7.32888 44.3416 7.32051 44.3372C7.31171 44.3323 7.30334 44.3283 7.29454 44.3235C7.28617 44.3186 7.27781 44.3142 7.26944 44.3093C7.26108 44.3045 7.25271 44.2996 7.24435 44.2943C7.23643 44.2894 7.22806 44.2841 7.22014 44.2788C7.21177 44.274 7.20385 44.2687 7.19592 44.2629C7.188 44.2576 7.18007 44.2523 7.17215 44.2466C7.16466 44.2408 7.15674 44.2351 7.14881 44.2294C7.14133 44.2236 7.13384 44.2179 7.12592 44.2117C7.11843 44.206 7.11095 44.1998 7.10347 44.1936C7.09642 44.1874 7.08894 44.1812 7.08189 44.175C7.07441 44.1688 7.06736 44.1622 7.06032 44.1556C7.05284 44.1494 7.04623 44.1428 7.03919 44.1362C7.03215 44.1295 7.02554 44.1229 7.0185 44.1158C7.0119 44.1092 7.00529 44.1021 6.99825 44.0955C6.99164 44.0885 6.98548 44.0814 6.97887 44.0743C6.97227 44.0672 6.96611 44.0597 6.9595 44.0527C6.95334 44.0452 6.94718 44.0381 6.94101 44.0306C6.93485 44.0231 6.92869 44.0156 6.92296 44.0081C6.91724 44.0005 6.91108 43.993 6.90535 43.9851C6.89963 43.9771 6.8939 43.9696 6.88862 43.9617C6.8829 43.9542 6.87718 43.9458 6.87189 43.9378C6.86661 43.9299 6.86133 43.9219 6.85604 43.9135C6.85076 43.9056 6.84592 43.8976 6.84108 43.8892C6.83623 43.8808 6.83095 43.8724 6.82611 43.8645C6.82126 43.8557 6.81642 43.8473 6.81202 43.8389C6.80718 43.8305 6.80277 43.8216 6.79837 43.8132C6.79397 43.8044 6.78956 43.796 6.78516 43.7872C6.7812 43.7783 6.7768 43.7695 6.77283 43.7607C6.76887 43.7518 6.76535 43.743 6.76139 43.7337C6.75743 43.7249 6.75347 43.7161 6.75038 43.7068C6.74642 43.6975 6.7429 43.6887 6.73982 43.6794C6.73629 43.6701 6.73321 43.6608 6.72969 43.6516C6.72661 43.6423 6.72353 43.633 6.72089 43.6237C6.7178 43.614 6.71516 43.6047 6.71252 43.5955C6.70988 43.5857 6.70724 43.5765 6.7046 43.5667C6.70195 43.557 6.69975 43.5478 6.69755 43.538C6.69535 43.5283 6.69315 43.5186 6.69095 43.5089C6.68919 43.4992 6.68743 43.489 6.68523 43.4793C6.6839 43.4696 6.68214 43.4594 6.68082 43.4497C6.67906 43.4395 6.67774 43.4298 6.67642 43.4197C6.6751 43.4099 6.67378 43.3998 6.6729 43.3896C6.67202 43.3795 6.67114 43.3697 6.67026 43.3596C6.66938 43.3494 6.66893 43.3393 6.66849 43.3287C6.66761 43.3185 6.66717 43.3083 6.66717 43.2982C6.66673 43.288 6.66673 43.2779 6.66673 43.2673V24.6235C6.66673 23.9627 7.20561 23.422 7.86423 23.422ZM35.5421 1C36.2008 1 36.7396 1.54069 36.7396 2.20154V10.099C36.7396 10.7599 36.2008 11.3006 35.5421 11.3006C34.8835 11.3006 34.3446 10.7599 34.3446 10.099V3.40352H31.1409V4.60727C31.1409 5.26812 30.602 5.80925 29.9434 5.80925C29.2848 5.80925 28.7459 5.26812 28.7459 4.60727V2.20154C28.7459 1.54069 29.2848 1 29.9434 1C29.9597 1 29.9756 1.00044 29.9914 1.00088C30.0073 1.00044 30.0231 1 30.039 1H35.3696C35.3986 1 35.4272 1.00133 35.4558 1.00309C35.484 1.00133 35.5131 1 35.5421 1ZM23.0046 13.4275L22.9812 13.5773L22.8342 14.5098L22.4234 17.1179C22.39 17.3189 22.537 17.4911 22.7347 17.538C22.9319 17.5848 23.1195 17.4266 23.1534 17.2261C23.3106 16.2887 23.4572 15.3924 23.5976 14.4846C23.6729 13.9965 23.6628 14.0358 23.735 13.5331C23.764 13.3299 23.6425 13.1369 23.4805 13.0852C23.2903 13.0247 23.0495 13.1435 23.0046 13.4275ZM24.4059 14.41L24.3588 14.5544L24.0682 15.452L23.2542 17.9629C23.1899 18.1564 23.3083 18.3499 23.4959 18.4272C23.6834 18.5045 23.8934 18.3777 23.9582 18.1847C24.2602 17.284 24.5455 16.4217 24.8259 15.5475C24.9765 15.0774 24.9606 15.1146 25.1103 14.6295C25.1711 14.4334 25.0808 14.2236 24.9294 14.1471C24.7506 14.0575 24.4944 14.1365 24.4059 14.41ZM25.6452 15.3884L25.5721 15.5214L25.1156 16.3466L23.838 18.6551C23.738 18.8323 23.8173 19.0452 23.9868 19.1569C24.1563 19.2691 24.3865 19.1848 24.4869 19.0081C24.9549 18.1816 25.3991 17.39 25.8407 16.586C26.0784 16.1531 26.0555 16.1867 26.295 15.7392C26.3919 15.5585 26.3435 15.335 26.2096 15.2312C26.0516 15.1088 25.7843 15.1375 25.6452 15.3884ZM26.9691 16.3925L26.8669 16.5047L26.229 17.1983L24.4455 19.1402C24.3068 19.2886 24.3337 19.5139 24.4719 19.6627C24.6106 19.8116 24.8541 19.7842 24.9928 19.6362C25.6421 18.944 26.2598 18.2796 26.8779 17.6024C27.2103 17.238 27.1804 17.265 27.5185 16.8873C27.655 16.7344 27.6603 16.5056 27.5542 16.3731C27.4296 16.2167 27.1632 16.1814 26.9691 16.3925ZM27.9649 17.2195L27.85 17.3184L27.135 17.932L25.135 19.6477C24.9796 19.7789 24.98 20.0055 25.0997 20.1699C25.2195 20.3337 25.4647 20.336 25.6201 20.2052C26.3461 19.5951 27.0377 19.009 27.7316 18.41C28.1049 18.0875 28.0719 18.1109 28.4518 17.7756C28.609 17.6369 28.6152 17.3979 28.5196 17.253C28.4113 17.0896 28.1784 17.037 27.9649 17.2195ZM30.0381 19.5064L29.8976 19.5633L29.0255 19.9167L26.5856 20.9062C26.3967 20.9809 26.325 21.196 26.3866 21.3899C26.4482 21.5839 26.6798 21.6638 26.8687 21.5896C27.751 21.2424 28.5923 20.9067 29.4398 20.5604C29.8954 20.3739 29.8567 20.3854 30.3238 20.1889C30.7341 20.0157 30.529 19.3071 30.0381 19.5064ZM28.9322 18.3583L28.8027 18.4369L27.9962 18.9228L25.7408 20.2825C25.5655 20.3859 25.5286 20.6098 25.6192 20.7918C25.7104 20.9738 25.9521 21.0162 26.1269 20.9133C26.944 20.4323 27.7228 19.9689 28.5056 19.4935C28.9269 19.2378 28.8903 19.2554 29.3209 18.9878C29.6991 18.7527 29.3865 18.0848 28.9322 18.3583ZM31.516 20.8691L27.3133 21.5618C27.1126 21.5932 26.9955 21.7875 27.0135 21.9903C27.0311 22.193 27.2398 22.322 27.4401 22.2911C28.8802 22.0689 30.2208 21.8529 31.6454 21.598C31.8453 21.5622 31.9796 21.3692 31.9439 21.1686C31.9083 20.9681 31.7155 20.8334 31.516 20.8691ZM32.1038 22.6578L27.8452 22.6865C27.6422 22.686 27.4965 22.8596 27.4824 23.0628C27.4683 23.266 27.6545 23.4259 27.8575 23.4268C29.3143 23.4317 30.672 23.4273 32.1187 23.3981C32.3217 23.3941 32.4841 23.2241 32.4802 23.0209C32.4762 22.8172 32.3067 22.6538 32.1038 22.6578ZM32.1649 24.4601L27.9781 23.6746C27.7791 23.6358 27.603 23.7785 27.5511 23.975C27.4987 24.1716 27.651 24.3646 27.85 24.404C29.2795 24.6871 30.6131 24.942 32.039 25.1898C32.2389 25.2243 32.4309 25.0887 32.4652 24.8881C32.5 24.6876 32.3648 24.495 32.1649 24.4601ZM32.0831 26.3591L28.0609 24.953C27.8698 24.8846 27.6748 24.999 27.5933 25.1854C27.5123 25.3723 27.6343 25.5856 27.8254 25.6545C29.1963 26.1493 30.477 26.6021 31.8497 27.0615C32.0421 27.1255 32.2521 27.0204 32.3164 26.8274C32.3802 26.6339 32.2755 26.4236 32.0831 26.3591ZM31.8282 28.347L28.1036 26.2747C27.9271 26.1745 27.7153 26.254 27.6039 26.424C27.4921 26.5941 27.5762 26.8251 27.7523 26.9254C29.0193 27.6472 30.2045 28.3125 31.479 28.999C31.6582 29.0957 31.8827 29.0277 31.9787 28.8483C32.0747 28.669 32.0069 28.4433 31.8282 28.347ZM31.6521 34.1077L28.2806 30.1501C28.1529 29.992 27.9266 29.988 27.7611 30.1055C27.5951 30.223 27.5889 30.4686 27.7166 30.6272C28.9573 32.1667 29.7647 33.1147 31.0894 34.5866C31.225 34.7381 31.4658 34.7734 31.6093 34.6299C31.7524 34.4859 31.7877 34.2592 31.6521 34.1077ZM31.5658 30.7938L28.3352 28.009C28.1824 27.8752 27.9592 27.9101 27.8157 28.0541C27.6722 28.1981 27.7078 28.441 27.8606 28.5753C28.9559 29.5392 29.9826 30.4307 31.0929 31.3618C31.2483 31.4922 31.4821 31.4714 31.6124 31.315C31.7423 31.1591 31.7216 30.9245 31.5658 30.7938ZM20.4625 13.4275L20.4859 13.5773L20.6329 14.5098L21.0437 17.1179C21.0767 17.3189 20.9301 17.4911 20.7324 17.538C20.5352 17.5848 20.3472 17.4266 20.3137 17.2261C20.1561 16.2887 20.0095 15.3924 19.8695 14.4846C19.7942 13.9965 19.8044 14.0358 19.7322 13.5331C19.7031 13.3299 19.8251 13.1369 19.9866 13.0852C20.1768 13.0247 20.4176 13.1435 20.4625 13.4275ZM19.0612 14.41L19.1079 14.5544L19.3989 15.452L20.2129 17.9629C20.2768 18.1564 20.1588 18.3499 19.9712 18.4272C19.7837 18.5045 19.5732 18.3777 19.5085 18.1847C19.2065 17.284 18.9217 16.4217 18.6412 15.5475C18.4906 15.0774 18.5065 15.1146 18.3568 14.6295C18.2961 14.4334 18.3859 14.2236 18.5378 14.1471C18.7161 14.0575 18.9727 14.1365 19.0612 14.41ZM17.8215 15.3884L17.895 15.5214L18.3515 16.3466L19.6287 18.6551C19.7286 18.8323 19.6498 19.0452 19.4803 19.1569C19.3108 19.2691 19.0806 19.1848 18.9802 19.0081C18.5122 18.1816 18.068 17.39 17.6264 16.586C17.3887 16.1531 17.4116 16.1867 17.1716 15.7392C17.0752 15.5585 17.1237 15.335 17.2579 15.2312C17.416 15.1088 17.6828 15.1375 17.8215 15.3884ZM16.4976 16.3925L16.6006 16.5047L17.2381 17.1983L19.0216 19.1402C19.1603 19.2886 19.1334 19.5139 18.9952 19.6627C18.8565 19.8116 18.613 19.7842 18.4739 19.6362C17.825 18.944 17.2073 18.2796 16.5892 17.6024C16.2568 17.238 16.2867 17.265 15.9486 16.8873C15.8121 16.7344 15.8069 16.5056 15.913 16.3731C16.0375 16.2167 16.3039 16.1814 16.4976 16.3925ZM15.5022 17.2195L15.6171 17.3184L16.3321 17.932L18.3322 19.6477C18.4876 19.7789 18.4871 20.0055 18.3674 20.1699C18.2476 20.3337 18.0024 20.336 17.847 20.2052C17.1206 19.5951 16.4294 19.009 15.7355 18.41C15.3622 18.0875 15.3952 18.1109 15.0148 17.7756C14.8577 17.6369 14.8515 17.3979 14.9475 17.253C15.0553 17.0896 15.2891 17.037 15.5022 17.2195ZM13.429 19.5064L13.5695 19.5633L14.4416 19.9167L16.8815 20.9062C17.0704 20.9809 17.1417 21.196 17.0805 21.3899C17.0189 21.5839 16.7869 21.6638 16.598 21.5896C15.7162 21.2424 14.8748 20.9067 14.0273 20.5604C13.5712 20.3739 13.61 20.3854 13.1433 20.1889C12.733 20.0157 12.9382 19.3071 13.429 19.5064ZM14.5345 18.3583L14.6644 18.4369L15.4709 18.9228L17.7268 20.2825C17.9011 20.3859 17.9386 20.6098 17.8474 20.7918C17.7567 20.9738 17.515 21.0162 17.3403 20.9133C16.5232 20.4323 15.7443 19.9689 14.9616 19.4935C14.5402 19.2378 14.5768 19.2554 14.1462 18.9878C13.7676 18.7527 14.0806 18.0848 14.5345 18.3583ZM11.9511 20.8691L16.1538 21.5618C16.3545 21.5932 16.4712 21.7875 16.4536 21.9903C16.436 22.193 16.2273 22.322 16.0265 22.2911C14.5869 22.0689 13.2463 21.8529 11.8217 21.598C11.6222 21.5622 11.488 21.3692 11.5232 21.1686C11.5588 20.9681 11.7512 20.8334 11.9511 20.8691ZM11.3634 22.6578L15.6224 22.6865C15.8249 22.686 15.9706 22.8596 15.9847 23.0628C15.9988 23.266 15.8126 23.4259 15.6096 23.4268C14.1528 23.4317 12.7951 23.4273 11.3484 23.3981C11.1454 23.3941 10.983 23.2241 10.987 23.0209C10.9909 22.8172 11.1604 22.6538 11.3634 22.6578ZM11.3022 24.4601L15.4886 23.6746C15.688 23.6358 15.8637 23.7785 15.916 23.975C15.9684 24.1716 15.8161 24.3646 15.6171 24.404C14.1876 24.6871 12.8541 24.942 11.4281 25.1898C11.2282 25.2243 11.0363 25.0887 11.0019 24.8881C10.9671 24.6876 11.1023 24.495 11.3022 24.4601ZM11.3841 26.3591L15.4062 24.953C15.5973 24.8846 15.7923 24.999 15.8733 25.1854C15.9543 25.3723 15.8324 25.5856 15.6418 25.6545C14.2708 26.1493 12.9906 26.6021 11.6174 27.0615C11.425 27.1255 11.215 27.0204 11.1512 26.8274C11.0869 26.6339 11.1917 26.4236 11.3841 26.3591ZM11.6385 28.347L15.3635 26.2747C15.5401 26.1745 15.7518 26.254 15.8636 26.424C15.975 26.5941 15.8909 26.8251 15.7144 26.9254C14.4478 27.6472 13.2626 28.3125 11.9876 28.999C11.8089 29.0957 11.5844 29.0277 11.4884 28.8483C11.3924 28.669 11.4598 28.4433 11.6385 28.347ZM11.8151 34.1077L15.1861 30.1501C15.3142 29.992 15.5405 29.988 15.706 30.1055C15.872 30.223 15.8782 30.4686 15.7505 30.6272C14.5099 32.1667 13.702 33.1147 12.3777 34.5866C12.2417 34.7381 12.0013 34.7734 11.8578 34.6299C11.7143 34.4859 11.6795 34.2592 11.8151 34.1077ZM11.9009 30.7938L15.1315 28.009C15.2843 27.8752 15.5079 27.9101 15.6514 28.0541C15.795 28.1981 15.7593 28.441 15.6065 28.5753C14.5112 29.5392 13.4845 30.4307 12.3742 31.3618C12.2188 31.4922 11.985 31.4714 11.8547 31.315C11.7244 31.1591 11.7455 30.9245 11.9009 30.7938Z" fill="#0036A5" stroke="#0036A5" stroke-width="0.121099" stroke-miterlimit="22.9256"/>
<path fillRule="evenodd" clipRule="evenodd" d="M24.3403 23.4379C24.2439 23.4153 24.1668 23.4273 24.0942 23.4215C24.0216 23.4153 23.9533 23.3919 23.8657 23.3606C23.7781 23.3292 23.6716 23.2903 23.6139 23.2413C23.5558 23.1923 23.547 23.1326 23.5338 23.0434C23.5206 22.9542 23.5025 22.8349 23.4638 22.7324C23.4255 22.6299 23.366 22.5433 23.2965 22.4705C23.2265 22.3976 23.1463 22.3379 23.0711 22.2995C22.9953 22.2606 22.924 22.243 22.8589 22.2337C22.7937 22.2248 22.7343 22.2248 22.6691 22.1895C22.6035 22.1537 22.5326 22.0822 22.497 22.0062C22.4613 21.9302 22.4613 21.8498 22.4525 21.7888C22.4433 21.7279 22.4256 21.6864 22.3662 21.6519C22.3068 21.6179 22.206 21.5909 22.1232 21.5565C22.04 21.5225 21.9748 21.481 21.8665 21.4514C21.7582 21.4213 21.6068 21.4036 21.4971 21.4081C21.3875 21.4125 21.3193 21.439 21.2687 21.4765C21.2185 21.5136 21.1859 21.5614 21.1339 21.5985C21.082 21.6356 21.0107 21.6625 20.9486 21.6864C20.8865 21.7102 20.8328 21.731 20.7914 21.7787C20.75 21.826 20.7201 21.9006 20.71 21.9704C20.6994 22.0402 20.7082 22.106 20.6994 22.1595C20.6906 22.2129 20.6637 22.2549 20.5999 22.2801C20.5361 22.3052 20.4353 22.3141 20.3419 22.3366C20.2486 22.3591 20.1623 22.3945 20.1059 22.4409C20.0496 22.4868 20.0232 22.5433 20.002 22.588C19.9813 22.6326 19.9668 22.6653 19.94 22.6953C19.9131 22.7249 19.8748 22.7518 19.8391 22.7934C19.8035 22.8349 19.7709 22.8919 19.7546 22.9555C19.7383 23.0195 19.7383 23.0911 19.7207 23.1715C19.7027 23.2519 19.667 23.3411 19.5706 23.3946C19.4742 23.448 19.317 23.4661 19.188 23.4913C19.059 23.5165 18.9582 23.5492 18.8662 23.6C18.7742 23.6504 18.6914 23.7193 18.6051 23.7829C18.5193 23.8469 18.4303 23.9066 18.3634 23.9737C18.2965 24.0404 18.2525 24.1151 18.2137 24.2414C18.175 24.3677 18.1424 24.5462 18.1129 24.7044C18.083 24.8621 18.0566 24.999 18.0354 25.1434C18.0147 25.2874 18.0002 25.4394 18.0328 25.6148C18.0654 25.7906 18.1455 25.9898 18.2181 26.1595C18.2908 26.3291 18.3559 26.4691 18.4418 26.6003C18.5281 26.7311 18.6346 26.853 18.7478 26.9572C18.8605 27.0615 18.9789 27.1476 19.1022 27.2249C19.225 27.3027 19.3527 27.3712 19.4671 27.4233C19.5812 27.4754 19.682 27.5107 19.7727 27.554C19.8629 27.5973 19.943 27.6477 20.0082 27.6998C20.0734 27.7519 20.124 27.8058 20.1297 27.8518C20.1359 27.8977 20.0971 27.9366 20.0364 27.9529C19.9756 27.9693 19.8924 27.9631 19.8255 27.9755C19.759 27.9869 19.7084 28.017 19.6688 28.0854C19.6287 28.1539 19.5988 28.2608 19.6049 28.362C19.6107 28.4631 19.6525 28.5586 19.7308 28.639C19.8092 28.7193 19.925 28.7847 20.0496 28.798C20.1742 28.8117 20.3076 28.7728 20.3776 28.7074C20.4471 28.642 20.4533 28.5497 20.4753 28.4768C20.4978 28.4039 20.5361 28.3501 20.5999 28.3174C20.6637 28.2847 20.7527 28.2727 20.8284 28.3381C20.9041 28.4039 20.9662 28.5466 20.9886 28.6685C21.0107 28.7905 20.9931 28.8916 20.9587 28.9764C20.9248 29.0613 20.8742 29.1297 20.8196 29.2384C20.7646 29.3475 20.7051 29.4959 20.6831 29.6492C20.6607 29.8025 20.6756 29.9602 20.7007 30.1183C20.7263 30.276 20.7615 30.4333 20.7971 30.5499C20.8328 30.6657 20.8685 30.7403 20.8878 30.8428C20.9592 31.2245 20.9442 31.8372 20.971 32.2493C20.9878 32.5055 21.0005 32.6244 21.0252 32.7586C21.0498 32.8929 21.0864 33.0422 21.0965 33.1805C21.1062 33.3188 21.0895 33.4451 21.0837 33.5949C21.078 33.7442 21.0837 33.916 21.0978 34.1188C21.1119 34.3215 21.1344 34.5557 21.1383 34.6851C21.1427 34.815 21.1287 34.8401 21.0697 34.8485C21.0107 34.8569 20.9068 34.8485 20.8143 34.8357C20.7214 34.8233 20.64 34.8061 20.5559 34.8035C20.4714 34.8008 20.3842 34.8119 20.3225 34.8415C20.2609 34.8711 20.2244 34.9192 20.2059 35.0137C20.1878 35.1078 20.1878 35.2487 20.1795 35.3446C20.1711 35.4405 20.1539 35.4908 20.109 35.4997C20.0641 35.508 19.991 35.474 19.9479 35.4007C19.9039 35.3274 19.8902 35.2147 19.8858 35.1175C19.8841 35.0738 19.8841 35.0336 19.8849 34.997H19.8885V34.8808C19.8889 34.8697 19.8889 34.8591 19.8885 34.8494V34.6162H18.2991V34.997H18.3044C18.2965 35.0866 18.3066 35.1971 18.3159 35.3194C18.3286 35.4855 18.3401 35.6741 18.3454 35.804C18.3511 35.9334 18.3511 36.0041 18.3832 36.0404C18.4158 36.077 18.4801 36.0801 18.5589 36.0801C18.6377 36.0801 18.7301 36.077 18.834 36.0673C18.9379 36.0576 19.0533 36.0403 19.1251 36.0178C19.1964 35.9953 19.2246 35.9675 19.2426 35.9348C19.2611 35.9025 19.2695 35.8659 19.2413 35.8221C19.2131 35.7784 19.1488 35.7276 19.0656 35.7024C18.9833 35.6768 18.882 35.6768 18.823 35.6238C18.764 35.5699 18.7473 35.463 18.7808 35.3839C18.8147 35.3048 18.8988 35.2545 19.0207 35.2417C19.1431 35.2289 19.3034 35.2545 19.4015 35.3035C19.4997 35.353 19.5362 35.4263 19.5446 35.5094C19.553 35.5924 19.5332 35.6856 19.5248 35.774C19.5164 35.8632 19.5195 35.9476 19.5812 35.9617C19.6428 35.9759 19.7634 35.9193 19.8524 35.9038C19.9408 35.8884 19.9968 35.9136 20.039 35.9449C20.0813 35.9759 20.109 36.0125 20.1557 36.0152C20.2019 36.0178 20.2666 35.9869 20.3085 35.9547C20.3507 35.9224 20.3705 35.8884 20.4291 35.8857C20.4881 35.8826 20.5863 35.9109 20.6593 35.952C20.7324 35.9926 20.7804 36.0461 20.8253 36.0828C20.8702 36.1194 20.912 36.1393 20.9292 36.0995C20.9459 36.0602 20.9376 35.9617 20.9473 35.8857C20.9574 35.8098 20.9851 35.7559 21.0318 35.7333C21.078 35.7108 21.1427 35.7192 21.1678 35.7687C21.1929 35.8177 21.1793 35.9083 21.1793 36.0589C21.1793 36.2095 21.1929 36.4211 21.1806 36.5294C21.1678 36.638 21.1287 36.6433 21.0877 36.6296C21.0472 36.6155 21.0049 36.5815 20.9754 36.5395C20.9459 36.4971 20.9292 36.4463 20.8548 36.4057C20.7804 36.3646 20.6483 36.3337 20.5374 36.3182C20.4264 36.3027 20.3366 36.3027 20.2283 36.3027C20.1205 36.3027 19.9941 36.3027 19.9012 36.3027C19.8088 36.3027 19.7498 36.3027 19.7106 36.3279C19.671 36.3535 19.6512 36.4039 19.6415 36.4618C19.6318 36.5196 19.6318 36.5846 19.6203 36.6579C19.6093 36.7308 19.5869 36.8125 19.542 36.8646C19.4971 36.9168 19.4297 36.9393 19.3509 36.9534C19.2721 36.9676 19.1823 36.9733 19.0912 36.9605C19 36.9477 18.9071 36.9168 18.8622 36.8717C18.8173 36.8267 18.82 36.7675 18.8666 36.7326C18.9128 36.6972 19.0027 36.6857 19.0841 36.6818C19.1656 36.6773 19.2386 36.6804 19.2835 36.6323C19.3284 36.5846 19.3452 36.4856 19.3465 36.4141C19.3483 36.3421 19.3342 36.297 19.2734 36.2745C19.2131 36.2519 19.1066 36.2519 18.9494 36.2489C18.7922 36.2462 18.5844 36.2405 18.4788 36.2577C18.3735 36.2745 18.3709 36.3138 18.3722 36.4123C18.3735 36.5112 18.3793 36.669 18.385 36.8253C18.3903 36.9817 18.396 37.1368 18.3991 37.275C18.4004 37.3519 18.4013 37.4239 18.4013 37.4835L18.4008 37.7437H19.1779C19.1973 37.7455 19.2162 37.7468 19.2342 37.7481C19.4605 37.7649 19.6093 37.7649 19.7075 37.7552C19.7361 37.7521 19.7603 37.7486 19.7815 37.7437H19.914V37.5599C19.9153 37.5365 19.9153 37.5109 19.914 37.4835C19.9096 37.3961 19.8929 37.2887 19.8832 37.1986C19.8735 37.1085 19.8704 37.0352 19.8748 36.9874C19.8788 36.9393 19.8902 36.9168 19.9461 36.9212C20.0025 36.9252 20.1037 36.9565 20.1557 37.0254C20.2072 37.0943 20.2103 37.2017 20.2116 37.2887C20.2129 37.3762 20.2129 37.4438 20.2385 37.5061C20.2636 37.5679 20.3142 37.6244 20.4084 37.6523C20.5022 37.6805 20.64 37.6805 20.7637 37.6677C20.887 37.6549 20.9966 37.6297 21.071 37.6483C21.1454 37.6664 21.1846 37.7282 21.2017 37.7804C21.2185 37.8329 21.2127 37.8749 21.1608 37.9058C21.1088 37.9368 21.0107 37.9566 20.5317 37.9553C20.0531 37.954 19.1937 37.9314 18.764 37.927C18.3344 37.9231 18.3344 37.9368 18.3313 37.9792C18.3286 38.0216 18.3229 38.0918 18.326 38.1271C18.3286 38.1625 18.3401 38.1625 19.0097 38.1554C19.6793 38.1483 21.0076 38.1342 21.6693 38.1271C22.3305 38.1201 22.3248 38.1201 22.3222 38.1187C22.3191 38.1174 22.3191 38.1143 22.3165 36.9199C22.3138 35.7249 22.3081 33.3382 22.3081 32.1451C22.3081 30.9515 22.3138 30.9515 22.3275 30.9457C22.3416 30.9404 22.3644 30.9289 22.3869 30.8954C22.4094 30.8614 22.4318 30.8048 22.4556 30.7218C22.4794 30.6387 22.5049 30.5287 22.5172 30.4258C22.53 30.3233 22.53 30.2275 22.5159 30.0936C22.5018 29.9598 22.4736 29.7879 22.4626 29.6399C22.4512 29.492 22.4569 29.3678 22.4626 29.2256C22.4679 29.0833 22.4736 28.9226 22.4723 28.7706C22.471 28.6182 22.4626 28.4746 22.4754 28.396C22.4877 28.3169 22.5216 28.3028 22.5973 28.3381C22.6731 28.3735 22.7911 28.4578 22.85 28.5157C22.909 28.5731 22.909 28.6045 22.9275 28.631C22.9456 28.6579 22.9821 28.6805 23.0173 28.6902C23.0521 28.7004 23.086 28.6973 23.1578 28.6845C23.2291 28.6721 23.3387 28.6496 23.4017 28.6283C23.4651 28.6071 23.4818 28.5873 23.5113 28.5435C23.5408 28.5002 23.5831 28.4322 23.6042 28.3986C23.6253 28.3646 23.6253 28.3646 23.6324 28.3218C23.6399 28.2785 23.6544 28.1924 23.6443 28.1221C23.6341 28.0519 23.5998 27.9975 23.5412 27.9573C23.4831 27.9176 23.4008 27.8915 23.3555 27.8646C23.3101 27.8372 23.3017 27.8089 23.3145 27.7692C23.3273 27.729 23.3621 27.6768 23.4237 27.6411C23.4853 27.6053 23.5738 27.5858 23.6764 27.5514C23.779 27.5165 23.8956 27.4666 23.9789 27.4308C24.0621 27.395 24.1118 27.3734 24.2263 27.2563C24.3407 27.1392 24.5199 26.9268 24.6322 26.7881C24.7449 26.6493 24.7898 26.5844 24.8431 26.4912C24.8959 26.398 24.9562 26.2765 25.0135 26.1625C25.0707 26.049 25.1248 25.943 25.1671 25.8215C25.2089 25.7 25.2393 25.5635 25.2556 25.4429C25.2719 25.3228 25.2741 25.219 25.2719 25.0812C25.2697 24.9438 25.2631 24.7724 25.2362 24.6337C25.2089 24.495 25.1614 24.3885 25.1152 24.2759C25.0685 24.1632 25.0236 24.0439 24.9487 23.926C24.8743 23.8076 24.7704 23.6906 24.6613 23.604C24.5516 23.5169 24.4363 23.4604 24.3403 23.4379ZM22.2196 23.6026C22.2632 23.5863 22.3063 23.581 22.3548 23.5708C22.4032 23.5611 22.4569 23.547 22.4926 23.5351C22.5287 23.5236 22.5463 23.5143 22.5696 23.4723C22.5929 23.4299 22.6216 23.3544 22.6304 23.2855C22.6396 23.2161 22.6286 23.1534 22.6 23.0955C22.5714 23.0381 22.5247 22.9864 22.4657 22.9564C22.4067 22.9268 22.3349 22.9197 22.2742 22.9224C22.2134 22.925 22.1632 22.9378 22.1183 22.9555C22.0734 22.9736 22.0343 22.997 21.9867 23.0248C21.9392 23.0527 21.8837 23.0849 21.8454 23.1057C21.8066 23.1264 21.7851 23.1353 21.7529 23.1379C21.7208 23.1406 21.6776 23.137 21.6543 23.13C21.631 23.1229 21.6275 23.1119 21.6222 23.0968C21.6169 23.0814 21.6094 23.0615 21.5746 23.0346C21.5398 23.0076 21.4773 22.9736 21.4241 22.9458C21.3717 22.9179 21.3285 22.8963 21.2722 22.8702C21.2158 22.8442 21.1458 22.8137 21.0886 22.7991C21.0314 22.785 20.9864 22.7867 20.9371 22.8102C20.8878 22.8336 20.8341 22.8782 20.791 22.9285C20.7483 22.9789 20.7161 23.0346 20.699 23.0977C20.6818 23.1605 20.68 23.2307 20.6906 23.2952C20.7016 23.3601 20.7249 23.4193 20.7839 23.4617C20.8429 23.5037 20.938 23.5289 21.0089 23.5417C21.0793 23.5541 21.126 23.5541 21.1449 23.581C21.1639 23.6079 21.1546 23.6618 21.1053 23.7042C21.056 23.7462 20.9666 23.7767 20.8755 23.7763C20.7839 23.7749 20.6906 23.7427 20.6369 23.7383C20.5836 23.7338 20.5691 23.7573 20.5682 23.8076C20.5673 23.8575 20.5797 23.9348 20.6065 23.9954C20.6334 24.0554 20.6747 24.0987 20.7153 24.131C20.7553 24.1632 20.7949 24.1849 20.8288 24.2145C20.8627 24.2441 20.8914 24.282 20.912 24.3328C20.9327 24.3841 20.9451 24.449 20.9424 24.5029C20.9398 24.5568 20.9217 24.6001 20.8993 24.6332C20.8773 24.6664 20.8504 24.6898 20.8306 24.7238C20.8108 24.7582 20.7985 24.8029 20.7875 24.8541C20.7769 24.9053 20.7676 24.9628 20.7386 25.0105C20.7086 25.0582 20.6585 25.0957 20.5629 25.1262C20.4669 25.1571 20.3256 25.1805 20.1975 25.1858C20.0694 25.1911 19.9549 25.1788 19.8625 25.1275C19.7705 25.0763 19.7005 24.9862 19.6824 24.9089C19.6648 24.8316 19.6987 24.7671 19.7595 24.7569C19.8202 24.7472 19.9083 24.7923 19.9778 24.8342C20.0478 24.8766 20.0998 24.9164 20.157 24.9296C20.2142 24.9433 20.2772 24.9305 20.3023 24.8793C20.3274 24.828 20.3146 24.7384 20.2807 24.6611C20.2468 24.5838 20.1909 24.5193 20.1205 24.4813C20.0496 24.4437 19.9637 24.4327 19.8788 24.449C19.7938 24.4649 19.7093 24.5082 19.6313 24.5497C19.5534 24.5908 19.4821 24.6306 19.4218 24.6836C19.3619 24.7366 19.3135 24.8029 19.2796 24.8992C19.2457 24.9955 19.2259 25.1209 19.2096 25.2693C19.1937 25.4178 19.181 25.5883 19.2087 25.7725C19.2364 25.9567 19.3047 26.1546 19.3764 26.3322C19.4478 26.5102 19.523 26.6683 19.6089 26.7872C19.6952 26.9056 19.7916 26.9846 19.8902 27.0628C19.9888 27.141 20.0892 27.2183 20.1751 27.2749C20.2609 27.3314 20.3327 27.3676 20.4313 27.4025C20.5299 27.4374 20.6549 27.4719 20.7456 27.4807C20.8359 27.4895 20.8914 27.4736 20.9182 27.4259C20.9451 27.3782 20.9433 27.2991 20.9363 27.2338C20.9292 27.1679 20.9164 27.1158 20.9213 27.0341C20.9253 26.9524 20.9468 26.8411 20.9944 26.7708C21.0419 26.7006 21.1154 26.6719 21.1797 26.6683C21.2444 26.6648 21.2999 26.6864 21.3365 26.7386C21.373 26.7907 21.391 26.8733 21.3946 26.9776C21.3981 27.0818 21.3875 27.2077 21.41 27.293C21.4324 27.3782 21.4879 27.4233 21.5729 27.4485C21.6578 27.4736 21.7727 27.4789 21.8551 27.4652C21.9374 27.452 21.9876 27.4197 22.0171 27.3853C22.0466 27.3513 22.0554 27.3155 22.0387 27.2722C22.0215 27.2289 21.9783 27.179 21.9634 27.1043C21.9484 27.0297 21.9607 26.9307 21.9849 26.8543C22.0092 26.7779 22.0448 26.724 22.1091 26.6997C22.1738 26.6758 22.2667 26.6811 22.3288 26.7311C22.3904 26.7819 22.4208 26.8768 22.4336 26.9652C22.4459 27.0531 22.4406 27.1339 22.4551 27.1922C22.4692 27.2506 22.5031 27.2863 22.5546 27.312C22.6057 27.3371 22.6735 27.3513 22.7453 27.3575C22.817 27.3636 22.8919 27.3619 22.9654 27.3332C23.0389 27.3044 23.1107 27.2488 23.1912 27.1834C23.2718 27.1176 23.3612 27.0425 23.4365 26.9621C23.5118 26.8821 23.5725 26.7978 23.628 26.7196C23.6839 26.6414 23.7336 26.5698 23.7904 26.4669C23.8468 26.3649 23.9093 26.2319 23.956 26.1303C24.0022 26.0287 24.033 25.9585 24.0599 25.8551C24.0867 25.7517 24.1101 25.6152 24.1215 25.4814C24.1334 25.3475 24.1334 25.2163 24.1197 25.0798C24.1065 24.9433 24.0792 24.8011 24.0211 24.6801C23.963 24.5586 23.8736 24.4579 23.7623 24.3889C23.6513 24.3196 23.5188 24.2816 23.3916 24.271C23.2648 24.2604 23.1428 24.2763 23.0468 24.3258C22.9513 24.3753 22.8813 24.4579 22.8589 24.563C22.8364 24.6681 22.8615 24.7958 22.8972 24.8576C22.9333 24.9199 22.9799 24.9164 23.0257 24.885C23.0711 24.8532 23.116 24.794 23.1644 24.7529C23.2128 24.7114 23.2648 24.688 23.3198 24.696C23.3757 24.7044 23.4347 24.7437 23.4712 24.7993C23.5082 24.855 23.5223 24.927 23.5214 24.9955C23.5206 25.0635 23.5047 25.1284 23.4528 25.177C23.4008 25.2252 23.3128 25.2579 23.2137 25.2587C23.1142 25.2596 23.0028 25.2291 22.9011 25.1912C22.799 25.1536 22.7056 25.1085 22.6502 25.0511C22.5947 24.9937 22.5771 24.9235 22.5661 24.8391C22.5551 24.7543 22.5516 24.6558 22.5472 24.5656C22.5427 24.476 22.5375 24.3951 22.5489 24.3298C22.5608 24.2639 22.5894 24.2136 22.6163 24.1756C22.6431 24.138 22.6682 24.1129 22.6854 24.0669C22.7021 24.0214 22.7114 23.9547 22.6761 23.9052C22.6414 23.8558 22.5626 23.8235 22.4657 23.8063C22.3688 23.7895 22.2544 23.7877 22.187 23.7842C22.1201 23.7802 22.1003 23.7749 22.0915 23.7564C22.0827 23.7374 22.0844 23.7051 22.1073 23.6755C22.1307 23.6455 22.1756 23.619 22.2196 23.6026ZM21.6561 21.6784L21.7789 21.8017H21.9528V21.9761L22.0756 22.0994L21.9528 22.2226V22.3971H21.7789L21.6561 22.5204L21.5328 22.3971H21.3593V22.2226L21.2361 22.0994L21.3593 21.9761V21.8017H21.5328L21.6561 21.6784Z" fill="#E1C116" stroke="#0036A5" stroke-width="0.121099" stroke-miterlimit="22.9256"/>
</svg>
