<svg xmlns="http://www.w3.org/2000/svg" width="10em" height="3em" fill="none" class="w-[135px] h-[45px]"><path fill="#0036A5" fill-rule="evenodd" stroke="#0036A5" stroke-miterlimit="22.926" stroke-width="0.121" d="M21.734 11.187c.21 0 .384.173.384.385v4.635a.386.386 0 0 1-.384.386.386.386 0 0 1-.385-.386v-4.635c0-.212.173-.385.385-.385Zm-.118-7.245L40.189 22.58a1.2 1.2 0 0 0 1.694 0 1.21 1.21 0 0 0 0-1.7L22.463 1.394a1.198 1.198 0 0 0-1.694 0L4.23 17.989l-2.88 2.89a1.209 1.209 0 0 0 0 1.7 1.199 1.199 0 0 0 1.694 0L21.616 3.942ZM7.864 23.422c.659 0 1.198.54 1.198 1.201v17.443h25.283V24.623c0-.66.538-1.201 1.197-1.201s1.198.54 1.198 1.201V43.298l-.002.03-.002.032-.002.03-.004.03-.004.03a.76.76 0 0 0-.005.03l-.006.029-.006.029a.706.706 0 0 1-.015.058l-.009.028a.338.338 0 0 1-.009.028.317.317 0 0 1-.01.027c-.002.01-.006.018-.01.028-.007.018-.014.036-.023.054l-.012.026-.013.026-.014.026-.014.026a1.298 1.298 0 0 1-.062.097l-.017.023a.483.483 0 0 1-.018.023l-.018.023-.018.022a1.051 1.051 0 0 1-.08.083l-.02.02-.023.019-.021.019a.713.713 0 0 1-.023.018l-.022.017-.024.018a1.11 1.11 0 0 1-.097.063l-.025.014-.026.013a.523.523 0 0 1-.026.013l-.026.012a.841.841 0 0 1-.081.034l-.028.01-.028.009-.028.008-.028.008a.72.72 0 0 1-.03.007l-.029.006-.028.006-.03.005a.62.62 0 0 1-.03.005l-.03.003-.03.003-.03.002h-.031l-.03.001H7.833l-.031-.002-.03-.001-.03-.003-.03-.004a.53.53 0 0 1-.03-.004l-.03-.005-.03-.006-.028-.006a.59.59 0 0 1-.057-.015l-.029-.008-.028-.01c-.009-.002-.018-.006-.027-.01l-.028-.01-.027-.01c-.008-.005-.018-.009-.027-.013l-.026-.012a.76.76 0 0 1-.025-.013l-.026-.014-.026-.014a.664.664 0 0 1-.073-.046l-.024-.016a.82.82 0 0 0-.023-.018l-.023-.017-.023-.018-.021-.019a.474.474 0 0 1-.022-.02l-.02-.019a.988.988 0 0 1-.021-.02l-.02-.02-.02-.022-.02-.021-.018-.022-.018-.023-.018-.023-.016-.023a.444.444 0 0 1-.033-.049.426.426 0 0 1-.015-.024l-.015-.025-.014-.025-.014-.026-.013-.026-.012-.026-.012-.027c-.004-.01-.008-.018-.01-.027a.35.35 0 0 1-.011-.028l-.01-.027-.01-.028-.007-.029-.008-.028a.632.632 0 0 1-.014-.058l-.006-.03-.004-.03a.728.728 0 0 1-.008-.06l-.003-.03a.691.691 0 0 1-.003-.06V24.622c0-.66.539-1.201 1.197-1.201ZM35.542 1c.659 0 1.198.54 1.198 1.202v7.897c0 .66-.54 1.202-1.198 1.202-.659 0-1.197-.541-1.197-1.202V3.404H31.14v1.203c0 .661-.539 1.202-1.198 1.202a1.203 1.203 0 0 1-1.197-1.202V2.202A1.203 1.203 0 0 1 29.99 1L30.04 1h5.33c.03 0 .058.001.087.003A1.39 1.39 0 0 1 35.542 1ZM23.005 13.428l-.024.15-.147.932-.41 2.608c-.034.2.113.373.31.42.198.047.385-.111.42-.312.157-.937.303-1.834.444-2.741.075-.489.065-.45.137-.952.029-.203-.093-.396-.255-.448-.19-.06-.43.058-.475.342Zm1.4.982-.046.144-.29.898-.815 2.51c-.064.194.054.388.242.465.187.078.397-.05.462-.242.302-.901.588-1.763.868-2.637.15-.47.135-.433.284-.918.061-.197-.03-.406-.18-.483-.18-.09-.436-.01-.524.263Zm1.24.978-.073.133-.456.826-1.278 2.308c-.1.177-.02.39.149.502.17.112.4.028.5-.149.468-.826.912-1.618 1.354-2.422.237-.433.214-.4.454-.847.097-.18.048-.404-.085-.508-.158-.122-.426-.094-.565.157Zm1.324 1.004-.102.113-.638.693-1.784 1.942c-.138.149-.111.374.027.523.139.149.382.121.52-.027.65-.692 1.268-1.356 1.886-2.034.332-.364.302-.337.64-.715.137-.153.142-.381.036-.514-.124-.156-.39-.192-.585.02Zm.996.828-.115.098-.715.614-2 1.716c-.155.13-.155.358-.035.522.12.164.365.166.52.035.726-.61 1.418-1.196 2.112-1.795.373-.323.34-.3.72-.634a.415.415 0 0 0 .068-.523c-.109-.163-.342-.216-.555-.034Zm2.073 2.286-.14.057-.872.354-2.44.99c-.19.074-.261.289-.2.483.062.194.294.274.483.2.882-.348 1.723-.683 2.57-1.03.456-.186.418-.175.885-.371.41-.173.205-.882-.286-.683Zm-1.106-1.148-.13.079-.806.486-2.255 1.36c-.175.103-.212.327-.122.509.091.182.333.224.508.121.817-.48 1.596-.944 2.379-1.42.42-.255.384-.238.815-.505.378-.235.066-.903-.389-.63Zm2.584 2.511-4.203.693c-.2.031-.317.226-.3.428.018.203.227.332.427.301 1.44-.222 2.78-.438 4.205-.693a.371.371 0 0 0-.129-.729Zm.588 1.789-4.259.028c-.203 0-.348.174-.363.377-.014.203.172.363.376.364 1.456.005 2.814 0 4.26-.029a.37.37 0 0 0-.014-.74Zm.06 1.802-4.186-.785c-.199-.04-.375.104-.427.3-.052.197.1.39.299.429 1.43.283 2.763.538 4.189.786a.37.37 0 0 0 .126-.73Zm-.08 1.9-4.023-1.407c-.191-.068-.386.046-.468.232-.08.187.041.4.232.47 1.371.494 2.652.947 4.025 1.406a.37.37 0 0 0 .233-.702Zm-.256 1.987-3.724-2.072c-.177-.1-.389-.021-.5.149-.112.17-.028.401.148.501 1.267.722 2.453 1.387 3.727 2.074a.369.369 0 1 0 .35-.652Zm-.176 5.76-3.371-3.957c-.128-.158-.354-.162-.52-.044-.166.117-.172.363-.044.521a83.686 83.686 0 0 0 3.372 3.96c.136.151.377.186.52.043.143-.144.179-.37.043-.522Zm-.086-3.313-3.23-2.785c-.154-.134-.377-.099-.52.045-.144.144-.108.387.045.521 1.095.964 2.122 1.856 3.232 2.787a.369.369 0 1 0 .473-.568ZM20.462 13.427l.024.15.147.933.41 2.608c.034.2-.113.373-.31.42-.198.047-.386-.111-.42-.312-.157-.937-.303-1.834-.444-2.741-.075-.489-.065-.45-.137-.952-.029-.203.093-.396.255-.448.19-.06.43.058.476.342Zm-1.4.983.046.144.29.898.815 2.51c.064.194-.054.388-.242.465-.187.078-.398-.05-.462-.242-.303-.901-.587-1.763-.868-2.637-.15-.47-.134-.433-.284-.918-.06-.197.029-.406.18-.483.18-.09.436-.01.524.263Zm-1.24.978.073.133.457.826 1.277 2.308c.1.177.02.39-.149.502-.17.112-.4.028-.5-.149a212.67 212.67 0 0 1-1.354-2.422c-.237-.433-.214-.4-.454-.847-.097-.18-.048-.404.086-.508.158-.122.425-.094.564.157Zm-1.324 1.004.103.113.637.693 1.784 1.942c.138.149.111.374-.027.523-.139.149-.382.121-.521-.027a206.739 206.739 0 0 1-1.885-2.034c-.332-.364-.302-.337-.64-.715-.137-.153-.142-.381-.036-.514.125-.156.39-.192.585.02Zm-.996.828.115.098.715.614 2 1.716c.156.13.155.358.035.522-.12.164-.365.166-.52.035-.726-.61-1.418-1.196-2.112-1.795-.373-.323-.34-.3-.72-.634a.414.414 0 0 1-.068-.523c.108-.163.342-.216.555-.034Zm-2.073 2.286.14.057.873.354 2.44.99c.188.074.26.289.198.483-.061.194-.293.274-.482.2-.882-.348-1.723-.683-2.57-1.03-.457-.186-.418-.175-.885-.371-.41-.173-.205-.882.286-.683Zm1.105-1.148.13.079.807.486 2.256 1.36c.174.103.212.327.12.509-.09.182-.332.224-.507.121-.817-.48-1.596-.944-2.378-1.42-.422-.255-.385-.238-.816-.505-.378-.235-.065-.903.388-.63Zm-2.583 2.511 4.203.693c.2.031.317.226.3.428-.018.203-.227.332-.428.301a174.44 174.44 0 0 1-4.204-.693.37.37 0 0 1 .13-.729Zm-.588 1.789 4.26.028c.202 0 .348.174.362.377.014.203-.172.363-.375.364-1.457.005-2.815 0-4.262-.029a.37.37 0 0 1 .015-.74Zm-.06 1.802 4.186-.785c.199-.04.375.104.427.3.052.197-.1.39-.299.429-1.43.283-2.763.538-4.189.786a.37.37 0 0 1-.126-.73Zm.081 1.9 4.022-1.407c.191-.068.386.046.467.232.081.187-.04.4-.231.47-1.371.494-2.651.947-4.025 1.406a.37.37 0 0 1-.233-.702Zm.255 1.987 3.725-2.072c.176-.1.388-.021.5.149.111.17.027.401-.15.501A173.576 173.576 0 0 1 11.988 29a.369.369 0 0 1-.5-.15.372.372 0 0 1 .15-.502Zm.176 5.76 3.371-3.957c.128-.158.354-.162.52-.044.166.117.172.363.045.521a83.863 83.863 0 0 1-3.373 3.96c-.136.151-.377.186-.52.043-.144-.144-.178-.37-.043-.522Zm.086-3.313 3.23-2.785c.153-.134.377-.099.52.045.144.144.108.387-.044.521a175.274 175.274 0 0 1-3.233 2.787.369.369 0 1 1-.473-.568Z" clip-rule="evenodd"></path><path fill="#FECC00" fill-rule="evenodd" stroke="#0036A5" stroke-miterlimit="22.926" stroke-width="0.121" d="M24.34 23.438c-.096-.023-.173-.01-.246-.016a.914.914 0 0 1-.228-.061.904.904 0 0 1-.252-.12c-.058-.049-.067-.108-.08-.198a1.544 1.544 0 0 0-.07-.31.769.769 0 0 0-.167-.262.875.875 0 0 0-.226-.172.657.657 0 0 0-.212-.065c-.065-.01-.125-.01-.19-.045a.436.436 0 0 1-.172-.183c-.036-.076-.036-.156-.044-.217-.01-.061-.027-.103-.087-.137-.06-.034-.16-.061-.243-.096-.083-.034-.148-.075-.257-.105a1.342 1.342 0 0 0-.369-.043.39.39 0 0 0-.228.069c-.05.037-.083.084-.135.122-.052.037-.123.064-.185.087a.362.362 0 0 0-.158.093.391.391 0 0 0-.081.191c-.01.07-.002.136-.01.19a.146.146 0 0 1-.1.12c-.064.025-.165.034-.258.057a.607.607 0 0 0-.236.104c-.056.046-.083.102-.104.147-.02.045-.035.077-.062.107-.027.03-.065.057-.1.098a.412.412 0 0 0-.085.163c-.017.064-.017.135-.034.216-.018.08-.054.17-.15.223-.097.053-.254.071-.383.096-.129.026-.23.058-.322.109-.092.05-.175.12-.26.183-.087.064-.176.124-.243.19a.59.59 0 0 0-.15.268c-.038.127-.07.305-.1.463-.03.158-.056.295-.078.44-.02.143-.035.295-.002.47.032.177.112.376.185.546.073.17.138.31.224.44.086.131.193.253.306.357.112.104.23.19.354.268.123.078.25.146.365.198.114.052.215.088.306.131.09.043.17.094.235.146.065.052.116.106.122.152.006.046-.033.085-.094.1-.06.017-.144.011-.21.023a.208.208 0 0 0-.157.11.521.521 0 0 0-.064.277.428.428 0 0 0 .126.277.54.54 0 0 0 .319.159.44.44 0 0 0 .328-.09c.07-.066.075-.158.097-.231a.249.249 0 0 1 .125-.16c.064-.032.153-.044.228.021.076.066.138.209.16.33a.541.541 0 0 1-.03.308c-.033.085-.084.154-.138.262-.055.11-.115.258-.137.411-.022.153-.007.311.018.47.025.157.06.314.096.43.036.117.072.191.09.294.072.381.057.994.084 1.406.017.256.03.375.054.51.025.134.061.283.072.422.01.138-.008.264-.013.414-.006.15 0 .321.014.524s.036.437.04.566c.005.13-.01.155-.068.163a1.11 1.11 0 0 1-.256-.012c-.093-.013-.174-.03-.258-.032a.53.53 0 0 0-.233.038c-.062.03-.099.077-.117.172-.018.094-.018.235-.026.33-.009.096-.026.147-.071.156-.045.008-.118-.026-.161-.1a.647.647 0 0 1-.062-.282 1.975 1.975 0 0 1-.001-.121h.003v-.116a.41.41 0 0 0 0-.032v-.233H18.3v.381h.005c-.007.09.003.2.012.322.013.166.024.355.03.485.005.13.005.2.037.236.033.037.097.04.176.04.079 0 .171-.003.275-.013.104-.01.22-.027.291-.05.071-.022.1-.05.118-.082.018-.032.027-.07-.002-.113a.33.33 0 0 0-.175-.12c-.083-.025-.184-.025-.243-.078-.059-.054-.076-.161-.042-.24.034-.08.118-.13.24-.142a.776.776 0 0 1 .38.062c.099.049.135.122.144.205.008.083-.012.177-.02.265-.009.09-.005.174.056.188.062.014.182-.043.271-.058a.226.226 0 0 1 .187.04c.042.032.07.069.117.071.046.003.11-.028.152-.06.043-.033.063-.067.121-.07a.5.5 0 0 1 .23.067c.073.04.121.094.166.13.045.037.087.057.104.017.017-.039.009-.137.018-.213.01-.076.038-.13.085-.153.046-.022.11-.014.136.036.025.049.011.14.011.29 0 .15.014.362.002.47-.013.109-.052.114-.093.1a.246.246 0 0 1-.113-.09c-.03-.042-.046-.093-.12-.133a1.053 1.053 0 0 0-.318-.088c-.11-.015-.2-.015-.309-.015h-.327c-.092 0-.151 0-.19.025-.04.025-.06.076-.07.134-.01.058-.01.123-.02.196a.424.424 0 0 1-.079.207c-.045.052-.112.074-.191.088a.828.828 0 0 1-.26.008c-.091-.013-.184-.044-.229-.09-.045-.044-.042-.104.005-.138.046-.036.136-.047.217-.051.082-.005.155-.002.2-.05.044-.047.061-.146.063-.218.001-.072-.013-.117-.074-.14-.06-.022-.166-.022-.324-.025-.157-.003-.365-.009-.47.009-.105.017-.108.056-.107.154.002.1.007.257.013.413.005.157.011.312.014.45l.002.209v.26h.777l.056.004c.226.017.375.017.473.007a.639.639 0 0 0 .075-.011h.132v-.184a.748.748 0 0 0 0-.077c-.004-.087-.021-.194-.03-.284a1.175 1.175 0 0 1-.01-.212c.005-.048.016-.07.072-.066a.313.313 0 0 1 .21.104c.051.07.054.177.056.264 0 .087 0 .155.026.217a.248.248 0 0 0 .17.146c.094.029.232.029.356.016.123-.013.233-.038.307-.02.074.018.114.08.13.132.017.053.012.095-.04.126-.052.03-.15.05-.63.05-.478-.002-1.337-.025-1.767-.029-.43-.004-.43.01-.433.052-.002.043-.008.113-.005.148.003.035.014.035.684.028.67-.007 1.998-.02 2.66-.028.66-.007.655-.007.652-.008-.003-.002-.003-.005-.005-1.2-.003-1.194-.009-3.58-.009-4.774s.006-1.194.02-1.2a.122.122 0 0 0 .059-.05.67.67 0 0 0 .069-.173c.023-.083.049-.193.061-.296a1.372 1.372 0 0 0-.001-.332c-.014-.134-.042-.306-.053-.454-.012-.148-.006-.272 0-.414.005-.143.01-.303.01-.455-.002-.153-.01-.296.002-.375.013-.08.047-.093.122-.058.076.035.194.12.253.178.059.057.059.089.077.115.019.027.055.05.09.06.035.01.069.006.14-.006.072-.013.182-.035.245-.057a.172.172 0 0 0 .11-.084l.092-.145c.021-.034.021-.034.028-.077a.693.693 0 0 0 .012-.2.232.232 0 0 0-.103-.165c-.058-.04-.14-.066-.186-.092-.045-.028-.053-.056-.04-.096a.24.24 0 0 1 .109-.128c.061-.036.15-.055.252-.09.103-.034.22-.084.303-.12a.62.62 0 0 0 .247-.175c.115-.117.294-.33.406-.468.113-.139.158-.204.211-.297.053-.093.113-.215.17-.328.058-.114.112-.22.154-.341a2.05 2.05 0 0 0 .105-.74 2.744 2.744 0 0 0-.036-.448c-.027-.139-.075-.245-.12-.358-.047-.113-.092-.232-.167-.35a1.328 1.328 0 0 0-.288-.322.856.856 0 0 0-.32-.166Zm-2.12.165c.043-.017.086-.022.135-.032.048-.01.102-.024.138-.036.036-.011.053-.02.077-.063a.585.585 0 0 0 .06-.187.323.323 0 0 0-.164-.329.47.47 0 0 0-.347 0c-.046.018-.085.041-.132.069-.048.028-.103.06-.142.08a.215.215 0 0 1-.092.033.315.315 0 0 1-.099-.008c-.023-.007-.026-.018-.032-.033a.12.12 0 0 0-.047-.062 1.185 1.185 0 0 0-.486-.236.209.209 0 0 0-.152.011.478.478 0 0 0-.238.288.473.473 0 0 0-.008.197.24.24 0 0 0 .093.167.61.61 0 0 0 .225.08c.07.012.117.012.136.039.019.027.01.08-.04.123a.372.372 0 0 1-.23.072c-.091-.001-.184-.033-.238-.038-.053-.004-.068.02-.069.07 0 .05.012.127.038.187.027.06.069.104.11.136.04.032.079.054.113.084.034.03.062.067.083.118.02.051.033.116.03.17a.251.251 0 0 1-.043.13c-.022.033-.049.057-.068.09a.46.46 0 0 0-.043.131c-.011.051-.02.109-.05.157-.03.047-.08.085-.175.115-.096.031-.237.054-.365.06a.633.633 0 0 1-.335-.058.375.375 0 0 1-.18-.22c-.018-.076.016-.14.076-.151.061-.01.15.035.219.077.07.043.122.082.179.096.057.013.12 0 .145-.05.025-.052.013-.142-.021-.219a.372.372 0 0 0-.16-.18.369.369 0 0 0-.242-.032.908.908 0 0 0-.248.1 1.06 1.06 0 0 0-.21.135.495.495 0 0 0-.141.215 1.742 1.742 0 0 0-.07.37 1.936 1.936 0 0 0-.001.504c.027.184.096.382.167.56.072.177.147.335.233.454.086.119.183.198.281.276.099.078.2.155.285.212.086.056.158.093.256.128.099.034.224.069.315.078.09.008.145-.007.172-.055.027-.048.025-.127.018-.192-.007-.066-.02-.118-.015-.2a.56.56 0 0 1 .073-.263.237.237 0 0 1 .186-.103.17.17 0 0 1 .157.07.456.456 0 0 1 .058.24c.003.104-.008.23.015.315.022.085.078.13.163.155.085.026.2.03.282.017a.259.259 0 0 0 .162-.08c.03-.034.038-.07.022-.113-.018-.043-.06-.093-.076-.168a.547.547 0 0 1 .022-.25c.024-.076.06-.13.124-.154a.237.237 0 0 1 .22.031c.061.05.092.146.105.234.012.088.007.169.021.227a.172.172 0 0 0 .1.12c.05.025.119.04.19.046a.482.482 0 0 0 .22-.025.92.92 0 0 0 .226-.15c.08-.065.17-.14.245-.22.076-.08.137-.165.192-.243.056-.079.106-.15.162-.253.057-.102.12-.235.166-.337.046-.101.077-.171.104-.275a2.371 2.371 0 0 0 .06-.775 1.203 1.203 0 0 0-.099-.4.692.692 0 0 0-.259-.291.84.84 0 0 0-.37-.118.644.644 0 0 0-.345.055.35.35 0 0 0-.188.237.473.473 0 0 0 .038.295c.036.062.083.058.129.027.045-.032.09-.091.138-.132.049-.042.1-.065.156-.057a.233.233 0 0 1 .151.103.35.35 0 0 1 .05.197c0 .068-.016.132-.068.181a.363.363 0 0 1-.24.082c-.099 0-.21-.03-.312-.068a.69.69 0 0 1-.25-.14c-.056-.057-.074-.127-.085-.212-.01-.085-.014-.183-.019-.273-.004-.09-.01-.17.002-.236a.38.38 0 0 1 .067-.154c.027-.038.052-.063.07-.11.016-.045.025-.111-.01-.16-.035-.05-.113-.082-.21-.1-.097-.017-.212-.018-.279-.022-.067-.004-.087-.01-.096-.028-.008-.019-.007-.05.016-.08a.268.268 0 0 1 .113-.073Zm-.564-1.925.123.124h.174v.174l.123.123-.123.124v.174h-.174l-.123.123-.123-.123h-.174v-.174l-.123-.124.123-.123v-.174h.174l.123-.124Z" clip-rule="evenodd"></path><path fill="#0036A5" d="M54.955 30.226h5.206v.733h-4.396v1.596h4.245v.734h-4.245v1.667h4.396v.734h-5.206v-5.464ZM90.532 9.802h-2.06a.89.89 0 0 0-.885.89v10.91H75.551v-10.91a.89.89 0 0 0-.885-.89h-2.06a.89.89 0 0 0-.886.89v10.932c0 2.064 1.642 3.762 3.68 3.842v.003h12.339v-.003c2.037-.08 3.68-1.778 3.68-3.842V10.691a.89.89 0 0 0-.886-.889ZM48.542 25.338c-.486.034-.525-.818-.261-1.23l7.723-12.08c.687-1.074 1-1.718 2.049-2.145.258-.105.73-.165 1.226-.181.866-.028 1.298.195 1.648.41.432.265.722.605 1.332 1.485 2.464 3.554 7.207 11.341 7.955 12.511.263.412.225 1.264-.26 1.23-.596-.043-3.385.183-3.644-.223l-5.087-7.981c-.235-.37-1.66-2.912-1.667-2.916a.514.514 0 0 0-.282-.08c-.11 0-.238.03-.34.076-.033.015-1.705 2.987-1.945 3.364l-4.804 7.537c-.259.406-3.049.18-3.643.223ZM95.029 9.953h13.95c1.826 0 3.32 1.5 3.32 3.333v4.9c0 1.834-1.494 3.334-3.32 3.334h-.779l3.893 3.909h-5.387l-5.93-5.952-1.335-1.33h8.399a.89.89 0 0 0 .885-.89v-3.042a.89.89 0 0 0-.885-.888H93.922v-2.263c0-.611.498-1.111 1.107-1.111Zm19.137 15.385c-.486.034-.524-.818-.261-1.23l7.724-12.08c.686-1.074.998-1.718 2.048-2.145.258-.105.731-.165 1.226-.181.866-.028 1.298.195 1.648.41.432.265.722.605 1.332 1.485 2.464 3.554 7.208 11.341 7.955 12.511.263.412.225 1.264-.261 1.23-.595-.043-3.384.183-3.643-.223l-5.087-7.981c-.235-.37-1.66-2.912-1.667-2.916a.514.514 0 0 0-.282-.08c-.11 0-.238.03-.34.076-.033.015-1.705 2.987-1.945 3.364l-4.804 7.537c-.259.406-3.048.18-3.643.223Zm-42.545 7.296c1.266 0 2.063.075 2.392.224.408.186.612.633.612 1.34 0 .67-.246 1.11-.74 1.316-.402.17-1.218.256-2.447.256-1.33 0-2.186-.146-2.568-.44-.29-.222-.436-.709-.436-1.459h.81c0 .516.114.84.342.97.228.13.848.195 1.86.195.99 0 1.633-.048 1.927-.144.294-.095.441-.327.441-.694 0-.372-.11-.603-.33-.694-.22-.09-.84-.136-1.863-.136-1.25 0-2.09-.15-2.52-.454-.328-.229-.492-.641-.492-1.236 0-.644.197-1.06.591-1.25.395-.188 1.202-.282 2.42-.282 1.214 0 2.011.146 2.393.438.302.234.453.692.453 1.373h-.795c0-.472-.12-.77-.357-.893-.24-.123-.804-.184-1.693-.184-.764 0-1.233.01-1.407.031-.53.064-.795.318-.795.762 0 .374.143.628.43.761.286.134.876.2 1.772.2Zm11.046-2.409h5.683v.734h-2.432v4.731h-.81v-4.73h-2.44v-.735Zm17.366 0 2.861 5.465h-.914l-.644-1.212h-3.878l-.636 1.212h-.914l2.861-5.464h1.264Zm.954 3.518-1.479-2.864h-.206l-1.479 2.864h3.164Zm9.663-3.518h5.683v.734h-2.432v4.731h-.811v-4.73h-2.44v-.735Zm13.543 0h5.206v.734h-4.396v1.596h4.245v.734h-4.245v1.667h4.396v.734h-5.206v-5.464Z"></path></svg>