<svg width="200" height="42" viewBox="0 0 200 42" fill="none" xmlns="http://www.w3.org/2000/svg">
<g clip-path="url(#clip0_385_4910)">
<path d="M51.5218 14.0513C51.5059 14.0775 51.3791 14.1036 51.2416 14.1036C51.083 14.1036 50.8663 14.1611 50.6602 14.2553C50.2849 14.4226 49.64 14.9614 49.5025 15.2176C49.4602 15.3118 49.4021 15.3955 49.3862 15.4112C49.3228 15.4635 49.2224 15.6727 49.2224 15.7564C49.2224 15.8034 49.1748 15.9394 49.1219 16.0597C49.0691 16.18 48.9898 16.3787 48.9528 16.5095C48.9158 16.6403 48.8629 16.7919 48.8312 16.8495C48.7625 16.9802 48.7572 17.0011 48.6991 17.3307C48.6726 17.4771 48.6092 17.6706 48.5669 17.7595C48.5193 17.8432 48.4823 17.9844 48.4823 18.0733C48.4823 18.157 48.4612 18.2459 48.4295 18.2616C48.403 18.2773 48.3766 18.3715 48.3766 18.4604C48.3766 18.5545 48.3396 18.68 48.2973 18.7428C48.255 18.8056 48.1969 19.0148 48.1652 19.2135C48.1387 19.4123 48.0806 19.6476 48.033 19.7313C47.9907 19.815 47.9537 19.9458 47.9537 20.0242C47.9537 20.1027 47.9326 20.1811 47.9009 20.1968C47.8745 20.2125 47.848 20.3014 47.848 20.3851C47.848 20.4688 47.8004 20.6309 47.7423 20.746C47.6842 20.8611 47.6366 21.0336 47.6366 21.133C47.6366 21.2324 47.6154 21.3318 47.5837 21.3475C47.5573 21.3632 47.5309 21.4207 47.5309 21.4678C47.5309 21.5148 47.4939 21.6194 47.4569 21.6979C47.4146 21.7763 47.3617 21.9751 47.3406 22.1425C47.3247 22.3098 47.2613 22.5347 47.2084 22.6393C47.1503 22.7492 47.108 22.9165 47.108 23.0159C47.108 23.1153 47.0868 23.2147 47.0551 23.2303C47.0287 23.246 47.0023 23.3245 47.0023 23.4029C47.0023 23.4814 46.9705 23.5965 46.9283 23.654C46.886 23.7115 46.8384 23.8737 46.8173 24.0149C46.7803 24.2816 46.6481 24.7 46.5688 24.8046C46.5424 24.8412 46.5265 24.9354 46.5318 25.0138C46.5371 25.1864 46.4631 25.4846 46.3838 25.6362C46.3521 25.6938 46.3098 25.8559 46.2887 26.0024C46.2569 26.2534 46.2305 26.3319 46.0772 26.6823C46.0349 26.766 45.9926 26.9804 45.9715 27.153C45.9504 27.3256 45.9081 27.5139 45.8711 27.5714C45.8023 27.676 45.7231 27.9219 45.7072 28.0683C45.6913 28.22 45.5698 28.5861 45.5275 28.6122C45.5063 28.6279 45.4693 28.7691 45.4482 28.9313C45.4218 29.1823 45.3425 29.4177 45.1997 29.7001C45.1733 29.7524 45.1522 29.8675 45.1522 29.9616C45.1522 30.0558 45.1152 30.2022 45.0729 30.2859C44.9672 30.4847 44.9724 30.5422 45.1152 30.6729C45.2367 30.788 45.2526 30.788 47.4886 30.788C49.973 30.788 49.9783 30.788 50.1104 30.4637C50.1474 30.3696 50.2109 30.2179 50.2531 30.129C50.2901 30.0401 50.3377 29.8309 50.3589 29.6583C50.38 29.4909 50.4434 29.2346 50.4963 29.0987C50.5544 28.9627 50.5967 28.7848 50.5967 28.7064C50.5967 28.5599 50.7342 28.1363 50.8082 28.0421C50.8293 28.016 50.8663 27.8382 50.8822 27.6499C50.9033 27.4616 50.9403 27.2628 50.9668 27.2053C51.0355 27.0536 51.1676 26.5568 51.2046 26.3162C51.2258 26.2063 51.2733 26.0494 51.3103 25.9762C51.3473 25.903 51.3949 25.7042 51.4161 25.5316C51.4372 25.359 51.4742 25.1917 51.4953 25.1655C51.5165 25.1341 51.5535 25.0295 51.5746 24.9302C51.5958 24.8308 51.6328 24.721 51.6539 24.6948C51.6751 24.6634 51.7121 24.4908 51.7279 24.3025C51.7491 24.1142 51.8019 23.9103 51.8389 23.8527C51.8812 23.79 51.9288 23.6121 51.9447 23.4605C51.9658 23.3036 52.0345 23.0107 52.1032 22.8119C52.172 22.6079 52.246 22.3151 52.2671 22.1581C52.2882 22.0012 52.32 21.8443 52.3411 21.8182C52.4045 21.7345 52.5103 21.2585 52.505 21.0807C52.4997 20.8715 52.6318 20.746 52.7323 20.8558C52.7957 20.9238 53.023 21.337 53.1023 21.5305C53.134 21.609 53.4194 22.1372 53.6679 22.5766C53.6943 22.6184 53.763 22.7596 53.8265 22.8904C53.8846 23.0211 53.9586 23.1623 53.985 23.2042C54.0115 23.246 54.0591 23.3402 54.0908 23.4134C54.1225 23.4866 54.1701 23.5808 54.1965 23.6226C54.2229 23.6645 54.3181 23.8475 54.4079 24.0253C54.4978 24.2084 54.5929 24.3653 54.6194 24.3862C54.6458 24.4019 54.6669 24.449 54.6669 24.4856C54.6669 24.5274 54.7409 24.6739 54.8255 24.8099C54.9154 24.9459 54.9841 25.0923 54.9841 25.1446C54.9841 25.1917 55.0211 25.2597 55.0634 25.2963C55.1057 25.3329 55.1903 25.4584 55.2484 25.5787C55.3065 25.6938 55.3964 25.8611 55.444 25.9501C55.5656 26.1697 55.6501 26.3319 55.9726 26.9438C55.999 27.0013 56.0677 27.1164 56.1153 27.2053C56.1629 27.289 56.2422 27.4459 56.2845 27.5453C56.3267 27.6446 56.3849 27.7649 56.4113 27.8068C56.443 27.8486 56.4906 27.9428 56.5223 28.016C56.554 28.0892 56.6016 28.1834 56.628 28.2252C56.6545 28.267 56.7443 28.4344 56.8342 28.5913C56.9241 28.7482 57.0668 28.994 57.1514 29.1405C57.2412 29.2817 57.3469 29.47 57.3839 29.5589C57.4949 29.789 58.198 30.4376 58.4834 30.5736C58.6209 30.6363 58.7477 30.7096 58.7636 30.7357C58.7794 30.7566 58.9644 30.7932 59.1706 30.8142C59.382 30.8351 59.5829 30.8717 59.6093 30.8926C59.7309 30.9868 61.1211 30.8403 61.2744 30.7148C61.3167 30.6834 61.4489 30.605 61.5651 30.5527C61.7766 30.448 62.3316 29.9669 62.3316 29.8832C62.3316 29.857 62.4373 29.7158 62.5642 29.5694C62.6911 29.4177 62.8232 29.2137 62.8549 29.1091C62.8866 29.0045 62.9606 28.879 63.0188 28.8267C63.0717 28.7796 63.1351 28.6698 63.1509 28.5913C63.1668 28.5129 63.2408 28.3926 63.3148 28.3298C63.3835 28.2618 63.4417 28.1677 63.4417 28.1206C63.4417 28.0683 63.4892 27.9689 63.5474 27.8957C63.6055 27.8225 63.6531 27.7336 63.6531 27.6917C63.6531 27.6499 63.7271 27.5087 63.8117 27.3727C63.9016 27.2367 63.9703 27.0902 63.9703 27.0484C63.9703 27.0118 63.9967 26.9595 64.0284 26.9386C64.0601 26.9229 64.1183 26.8287 64.1606 26.7294C64.2029 26.6352 64.2927 26.4731 64.3667 26.3632C64.4407 26.2586 64.4989 26.1331 64.4989 26.0808C64.4989 26.0337 64.5464 25.9501 64.6046 25.8978C64.6627 25.8455 64.7103 25.7775 64.7103 25.7408C64.7103 25.7095 64.7843 25.5735 64.8689 25.4375C64.9588 25.3015 65.0275 25.1603 65.0275 25.1237C65.0275 25.0871 65.1015 24.9459 65.186 24.8099C65.2759 24.6739 65.3446 24.5274 65.3446 24.4908C65.3446 24.4542 65.3922 24.381 65.4503 24.3287C65.5085 24.2764 65.5561 24.1927 65.5561 24.1456C65.5561 24.0986 65.6248 23.9521 65.7146 23.8266C65.7992 23.7011 65.8732 23.5651 65.8732 23.5232C65.8732 23.4814 65.9102 23.4082 65.9525 23.3611C65.9948 23.314 66.1375 23.0682 66.275 22.8067C66.4071 22.5504 66.5551 22.2994 66.5974 22.2471C66.645 22.2 66.6608 22.1581 66.6397 22.1581C66.6133 22.1581 66.6186 22.132 66.6556 22.0954C66.6926 22.0588 66.719 21.996 66.719 21.9489C66.719 21.9019 66.7666 21.8182 66.8247 21.7659C66.8829 21.7136 66.9304 21.6351 66.9304 21.5881C66.9251 21.541 66.9939 21.3684 67.0731 21.2062C67.1894 20.9761 67.2476 20.9081 67.3427 20.9029C67.4326 20.9029 67.459 20.9343 67.459 21.0284C67.459 21.1016 67.4855 21.1749 67.5119 21.1906C67.5436 21.2062 67.5647 21.2847 67.5647 21.3632C67.5647 21.4416 67.5965 21.5567 67.6387 21.609C67.681 21.6665 67.7286 21.8809 67.7498 22.0797C67.7656 22.2837 67.8132 22.5295 67.8555 22.6289C67.9612 22.9113 68.0299 23.2042 68.0669 23.5128C68.0828 23.6697 68.1303 23.858 68.1673 23.9312C68.2043 24.0044 68.2519 24.1979 68.2731 24.3548C68.3048 24.6216 68.4369 25.0452 68.5162 25.1655C68.5374 25.1917 68.5691 25.38 68.5902 25.5787C68.6114 25.7775 68.6589 25.9867 68.7012 26.0494C68.7435 26.107 68.7805 26.2325 68.7805 26.3266C68.7805 26.4155 68.8069 26.5097 68.8334 26.5254C68.8651 26.5411 68.8862 26.6352 68.8862 26.7346C68.8862 26.834 68.9127 26.9752 68.9497 27.0589C69.0342 27.2628 69.0448 27.3204 69.103 27.7022C69.1347 27.8905 69.1823 28.0683 69.2087 28.0997C69.2563 28.1572 69.3355 28.4815 69.4095 28.9051C69.4307 29.0359 69.4783 29.1928 69.5153 29.2608C69.5523 29.3288 69.6051 29.5275 69.6316 29.7054C69.6791 30.0087 69.7531 30.2284 69.9064 30.5213C70.0333 30.7671 70.2236 30.788 72.5917 30.788C74.4841 30.788 74.8118 30.7776 74.9545 30.7043C75.1554 30.605 75.1766 30.4533 75.018 30.1395C74.9651 30.0192 74.8911 29.8309 74.8647 29.7158C74.7325 29.1876 74.7061 29.1091 74.6585 29.0463C74.6321 29.0097 74.5951 28.8633 74.574 28.7221C74.5528 28.5756 74.5052 28.3769 74.463 28.2775C74.2991 27.8539 74.3149 27.9114 74.2357 27.493C74.2092 27.3622 74.1669 27.2105 74.1352 27.153C74.1035 27.0955 74.0612 26.9438 74.0401 26.813C73.9978 26.5515 73.8709 26.1383 73.8075 26.0547C73.7811 26.0285 73.7493 25.8821 73.7282 25.7304C73.7071 25.5839 73.6595 25.3957 73.6172 25.312C73.5749 25.2335 73.5379 25.1132 73.5379 25.0505C73.5379 24.9877 73.5115 24.9197 73.4798 24.904C73.4533 24.8831 73.4322 24.8151 73.4375 24.7576C73.4533 24.6164 73.3846 24.3601 73.2947 24.2241C73.2577 24.1666 73.2102 23.9887 73.189 23.8318C73.1679 23.6749 73.1362 23.518 73.115 23.4919C73.041 23.382 72.9142 22.9584 72.8824 22.7178C72.8666 22.5818 72.819 22.4197 72.7767 22.3517C72.7344 22.2889 72.6816 22.1058 72.6604 21.9489C72.6393 21.792 72.6076 21.6351 72.5864 21.609C72.5124 21.4991 72.3856 21.0755 72.3538 20.8297C72.338 20.6885 72.2957 20.542 72.264 20.5054C72.1953 20.4217 72.1213 20.1497 72.0525 19.7366C72.0261 19.5744 71.9733 19.3861 71.931 19.3181C71.8887 19.2554 71.8411 19.088 71.82 18.9416C71.7988 18.8003 71.7512 18.6382 71.709 18.5807C71.6667 18.5231 71.635 18.4081 71.635 18.3296C71.635 18.2512 71.6138 18.1727 71.5821 18.157C71.5557 18.1413 71.5292 18.042 71.5292 17.9426C71.5292 17.8432 71.4817 17.6706 71.4235 17.5555C71.3654 17.4405 71.3178 17.2783 71.3178 17.1947C71.3178 17.111 71.2914 17.0221 71.2649 17.0064C71.2332 16.9855 71.2174 16.9436 71.2226 16.9122C71.2385 16.8495 71.1434 16.567 71.0482 16.3944C71.0218 16.3421 71.0006 16.2585 71.0006 16.2009C71.0006 15.976 70.5619 15.2386 70.2077 14.8672C69.769 14.4122 69.1294 14.0618 68.7964 14.0984C68.7382 14.1036 68.6695 14.0827 68.6484 14.0565C68.6114 13.9885 67.7445 13.9781 67.7022 14.0461C67.6863 14.067 67.5436 14.1036 67.3903 14.1193C67.0256 14.1559 66.5075 14.4122 66.164 14.726C65.8732 14.9875 65.4133 15.5158 65.2971 15.725C65.2548 15.7982 65.1332 16.0074 65.0275 16.1957C64.9217 16.384 64.7843 16.6193 64.7209 16.7187C64.6627 16.8181 64.5094 17.0796 64.3879 17.294C64.2663 17.5085 64.1236 17.7438 64.0707 17.8118C64.0126 17.8798 63.9703 17.974 63.9703 18.0263C63.9703 18.0733 63.9227 18.157 63.8646 18.2093C63.8117 18.2564 63.7377 18.3872 63.7007 18.4918C63.669 18.5964 63.6108 18.7167 63.5738 18.7585C63.5368 18.8003 63.4522 18.9416 63.3835 19.0619C63.2408 19.3181 63.1721 19.4384 62.9131 19.8725C62.8126 20.0399 62.6911 20.2387 62.6488 20.3171C62.6065 20.3956 62.4849 20.5943 62.3845 20.7617C62.284 20.929 62.1308 21.1906 62.0409 21.3475C61.9563 21.4991 61.7977 21.7606 61.6973 21.9332C61.5969 22.1006 61.4859 22.2941 61.4489 22.3674C61.4066 22.4406 61.3061 22.6132 61.2216 22.7596C61.0841 22.995 60.9943 23.1676 60.8885 23.4134C60.8674 23.4552 60.8304 23.5285 60.804 23.5703C60.7775 23.6121 60.7035 23.7534 60.6401 23.8841C60.5767 24.0149 60.4921 24.1875 60.4445 24.2712C60.4022 24.3496 60.3599 24.449 60.3547 24.4908C60.3229 24.7 59.9001 24.8936 59.9001 24.6948C59.9001 24.653 59.8313 24.5065 59.7415 24.3705C59.6569 24.2345 59.5829 24.0881 59.5829 24.041C59.5829 23.994 59.5353 23.9103 59.4772 23.858C59.419 23.8057 59.3715 23.7272 59.3715 23.6854C59.3715 23.6435 59.3186 23.5337 59.2499 23.4448C59.1812 23.3559 59.0966 23.2042 59.0543 23.11C59.0173 23.0107 58.9539 22.9061 58.9169 22.8695C58.8852 22.8328 58.7371 22.5975 58.5944 22.3464C58.457 22.0954 58.2878 21.8077 58.2244 21.6979C58.161 21.5933 58.0447 21.3998 57.9707 21.269C57.8914 21.1383 57.7751 20.9395 57.7064 20.8244C57.5795 20.6152 57.4632 20.4113 57.1355 19.8464C57.0403 19.6843 56.8501 19.3495 56.702 19.1037C56.5593 18.8526 56.4007 18.5859 56.3585 18.5075C56.3162 18.429 56.2263 18.293 56.1576 18.1989C56.0942 18.11 56.0413 18.0001 56.0413 17.9635C56.0413 17.9217 55.9937 17.8432 55.9356 17.7909C55.8774 17.7386 55.8299 17.6549 55.8299 17.6079C55.8299 17.5555 55.7823 17.4562 55.7241 17.383C55.6607 17.3097 55.5656 17.1476 55.5074 17.0221C55.4493 16.8965 55.333 16.6926 55.2484 16.5618C55.1585 16.4311 55.0581 16.2689 55.0211 16.1957C54.7515 15.6727 54.5348 15.3745 54.0855 14.9352C53.5093 14.3703 53.171 14.1768 52.6583 14.1193C52.4838 14.1036 52.3252 14.067 52.3094 14.0461C52.2724 13.9833 51.5641 13.9885 51.5218 14.0513Z" fill="#0036A5"/>
<path d="M88.1431 14.0514C87.9951 14.0828 87.6409 14.1717 87.366 14.2606C86.7899 14.4437 86.4146 14.7052 85.923 15.2648C85.5529 15.6832 85.4049 15.8977 84.2103 17.7387C82.5558 20.2963 82.2598 20.7461 81.7312 21.5306C81.451 21.949 80.9859 22.6551 80.7004 23.0997C79.3895 25.1395 79.0829 25.6102 77.4865 28.0161C77.1535 28.5182 76.7042 29.2138 76.4928 29.559C76.2813 29.9042 76.0276 30.3017 75.9272 30.4377C75.8267 30.5737 75.758 30.6992 75.7686 30.7096C75.7844 30.7253 77.0637 30.7358 78.6177 30.741H81.4405L81.6466 30.4377C81.9109 30.0506 82.4448 29.2243 83.502 27.5715C83.9619 26.8497 84.5856 25.8874 84.8922 25.4271C85.1988 24.9669 85.7274 24.1405 86.0657 23.5965C86.404 23.0474 86.8586 22.3308 87.0753 22.0013C87.292 21.6718 87.5616 21.2482 87.6779 21.0599C88.0426 20.4532 88.5078 19.7523 88.5448 19.7523C88.603 19.7523 90.1147 22.0641 91.3675 24.0673C91.7428 24.6687 92.2397 25.4428 92.467 25.7828C92.6996 26.1227 92.8846 26.4261 92.8846 26.4627C92.8846 26.5098 92.1446 26.5202 89.6496 26.5098L86.4093 26.4889L85.6058 27.7389C85.1671 28.424 84.6702 29.2086 84.501 29.4805C84.3372 29.7525 84.0887 30.15 83.946 30.354L83.6976 30.7358H92.6203H101.543L101.236 30.2755C101.067 30.0245 100.692 29.4544 100.407 29.0098C100.116 28.5653 99.3547 27.4041 98.7203 26.4366C97.5574 24.6687 96.7117 23.3664 95.7179 21.8287C95.4219 21.3737 94.5074 19.9825 93.6775 18.7324C92.8476 17.4876 92.0547 16.2795 91.9067 16.0546C91.5895 15.5525 90.7385 14.6999 90.3473 14.4803C89.6919 14.1194 88.7827 13.9416 88.1431 14.0514Z" fill="#0036A5"/>
<path d="M134.01 14.0356C133.576 14.0617 132.53 14.1977 131.869 14.318C130.362 14.59 129.147 14.9979 128.036 15.5994C127.73 15.7668 127.471 15.9184 127.455 15.9394C127.439 15.9551 127.333 16.0387 127.217 16.112C126.821 16.3735 126.065 17.1057 125.748 17.5293C125.578 17.7595 125.272 18.2773 125.071 18.68C124.463 19.9091 124.231 21.1957 124.305 22.9112C124.342 23.8998 124.394 24.3077 124.574 24.9824C124.96 26.4678 125.621 27.4877 126.905 28.5965C127.524 29.13 128.026 29.4386 128.893 29.8256C129.913 30.2806 130.711 30.5055 132.027 30.7043C133.751 30.9606 133.909 30.971 135.913 30.971C137.609 30.9658 137.953 30.9553 138.741 30.8507C140.966 30.5578 141.484 30.4219 142.774 29.8151C144.132 29.1771 144.772 28.7011 145.713 27.6498C146.046 27.2785 146.173 27.0745 146.543 26.3423C147.188 25.0452 147.505 22.8956 147.277 21.337C147.087 20.0294 146.913 19.4332 146.437 18.5126C146.014 17.6863 145.602 17.1475 144.999 16.6193C144.724 16.3787 144.402 16.0963 144.286 15.9917C143.995 15.7406 142.89 15.2019 142.071 14.9142C140.876 14.4906 139.285 14.1559 138.011 14.0513C137.403 14.0042 134.755 13.9937 134.01 14.0356ZM138.635 18.3034C140.337 18.5754 141.399 19.2135 141.954 20.3066C142.546 21.4729 142.494 23.8788 141.859 24.951C141.553 25.4741 141.003 25.9448 140.39 26.2063C140.046 26.358 139.163 26.5776 138.492 26.6822C137.699 26.8025 135.58 26.8705 134.406 26.8078C132.604 26.7136 131.25 26.3266 130.447 25.678C129.659 25.0452 129.252 23.9364 129.252 22.4248C129.252 20.9708 129.511 20.2281 130.278 19.4593C130.722 19.0095 131.007 18.8421 131.71 18.6068C132.794 18.2459 133.476 18.1831 136.098 18.2093C137.53 18.225 138.302 18.2511 138.635 18.3034Z" fill="#0036A5"/>
<path d="M184.861 14.0722C184.67 14.114 184.295 14.2343 184.026 14.3389C183.132 14.6946 182.704 15.1967 180.817 18.1256C179.955 19.4645 178.555 21.6089 177.756 22.8119C177.37 23.3872 176.889 24.1299 176.683 24.4594C176.472 24.7889 175.927 25.631 175.468 26.3266C175.008 27.0222 174.204 28.2565 173.681 29.0672C173.158 29.8779 172.698 30.5735 172.661 30.6154C172.618 30.6572 172.597 30.6991 172.608 30.7095C172.645 30.7461 178.243 30.7461 178.306 30.7095C178.385 30.6625 178.956 29.7785 180.595 27.2053C181.087 26.426 181.599 25.6414 181.731 25.4531C181.864 25.2649 182.223 24.7 182.535 24.1979C182.847 23.6958 183.312 22.9636 183.571 22.5713C183.83 22.1843 184.337 21.3788 184.702 20.7826C185.067 20.1915 185.389 19.7051 185.421 19.6999C185.479 19.6999 186.034 20.542 186.711 21.6612C186.922 22.0064 187.335 22.655 187.625 23.0995C187.921 23.5441 188.349 24.2188 188.587 24.6006C188.82 24.9824 189.158 25.5211 189.333 25.8036C189.512 26.086 189.676 26.3632 189.692 26.426L189.724 26.5306L186.489 26.5097L183.248 26.494L182.271 28.0473C180.806 30.3748 180.621 30.6938 180.669 30.7304C180.69 30.7461 184.623 30.7514 189.407 30.7357C194.19 30.72 198.144 30.7304 198.197 30.7514C198.388 30.835 198.393 30.7252 198.218 30.4846C198.118 30.3486 197.885 29.993 197.695 29.6896C197.505 29.3863 197.003 28.6122 196.569 27.9637C196.141 27.3151 195.412 26.2115 194.957 25.5055C194.502 24.7994 193.799 23.7272 193.398 23.1257C192.996 22.519 192.362 21.5462 191.986 20.9552C191.341 19.9405 190.194 18.1936 189.095 16.5461C188.027 14.9456 187.409 14.386 186.431 14.1349C185.987 14.0199 185.257 13.9937 184.861 14.0722Z" fill="#0036A5"/>
<path d="M104.852 14.1507C104.038 14.4488 103.525 14.9927 103.277 15.8243C103.203 16.0806 103.192 16.8495 103.192 23.4239V30.7357L105.455 30.7462C106.697 30.7566 107.728 30.7566 107.754 30.7462C107.775 30.7357 107.791 28.5756 107.791 25.9448C107.791 22.2575 107.807 21.1644 107.855 21.1644C107.892 21.1644 108.219 21.4521 108.584 21.8025C109.287 22.4877 111.407 24.4699 112.622 25.5892C113.468 26.3632 115.398 28.1834 116.672 29.402C117.924 30.605 118.585 30.9972 119.352 30.9972C120.578 30.992 121.323 30.605 121.783 29.7315L121.984 29.3497L122 21.8548L122.01 14.3651H120.123C119.082 14.3651 118.035 14.3494 117.797 14.3285L117.359 14.2971V19.0932C117.359 21.7293 117.348 23.8841 117.332 23.8841C117.322 23.8841 117.026 23.6069 116.687 23.267C116.344 22.9322 115.741 22.3621 115.35 22.0012C114.959 21.6404 114.293 21.018 113.87 20.6152C113.447 20.2125 112.633 19.4489 112.052 18.9154C111.475 18.3819 110.656 17.6235 110.228 17.226C107.659 14.8306 107.231 14.4645 106.803 14.271C106.417 14.0931 106.353 14.0827 105.756 14.067C105.233 14.0513 105.074 14.067 104.852 14.1507Z" fill="#0036A5"/>
<path d="M152.199 14.4436C152.14 14.5011 151.702 15.1496 151.215 15.8819C150.729 16.6141 150.158 17.4719 149.942 17.7909L149.556 18.3662L156.649 18.3976C164.319 18.4238 163.918 18.4133 164.584 18.701C165.192 18.9677 165.673 19.5901 165.673 20.1079C165.673 20.4112 165.53 20.929 165.377 21.1696C165.096 21.609 164.282 21.9908 163.363 22.1006C163.082 22.1372 161.772 22.1581 160.069 22.1581C158.515 22.1581 155.513 22.1738 153.399 22.1948L149.55 22.2261V26.494V30.7619L152.019 30.7462L154.493 30.7357L154.519 28.471L154.546 26.2116L157.918 26.1959L161.291 26.1854L161.449 26.3528C161.539 26.4469 161.798 26.7503 162.025 27.0222C162.253 27.2942 163.019 28.1729 163.733 28.9679C164.446 29.7681 165.086 30.4899 165.155 30.5736L165.276 30.7305L168.553 30.7357C170.356 30.7409 171.852 30.7409 171.884 30.7409C171.91 30.7357 171.857 30.6729 171.767 30.5893C171.672 30.5108 171.297 30.1185 170.922 29.7106C169.796 28.4867 167.771 26.3999 167.153 25.8245C166.83 25.5264 166.571 25.2492 166.582 25.2074C166.592 25.1603 166.867 25.04 167.274 24.904C168.025 24.653 168.506 24.381 169.082 23.8893C169.447 23.5808 169.954 23.0159 169.954 22.927C169.954 22.9008 170.023 22.7753 170.113 22.6498C170.478 22.1111 170.747 21.0232 170.747 20.0765C170.747 17.974 169.674 16.2898 167.75 15.3745C167.005 15.0189 166.376 14.8306 165.17 14.5795C163.986 14.339 164.076 14.3442 158.045 14.339C152.357 14.339 152.294 14.339 152.199 14.4436Z" fill="#0036A5"/>
<path d="M19.4101 0.127758C19.0348 0.284664 18.9344 0.347424 18.4851 0.729229C17.8561 1.26794 13.2572 5.7084 8.32543 10.5464C6.79778 12.0422 4.47194 14.3226 3.15045 15.6197C1.82895 16.9115 0.650176 18.104 0.528598 18.2662C0.401735 18.4335 0.237869 18.7264 0.163866 18.9199L0.0317159 19.2756L0.015858 29.6576L0 40.0396L0.206153 40.458C0.597316 41.2373 1.31621 41.8022 2.10911 41.9434C2.55313 42.0218 37.8846 42.0218 38.3287 41.9434C39.2114 41.7865 39.9779 41.1327 40.3162 40.2436L40.4378 39.935L40.4166 30.0499C40.4061 24.6104 40.3796 19.9503 40.3585 19.694C40.3109 19.1501 40.1735 18.7526 39.8828 18.3237C39.7717 18.1563 38.8044 17.1626 37.7419 16.1113C36.6742 15.06 35.5852 13.9669 35.3209 13.6845L34.8346 13.1667L34.8082 10.6248L34.7765 8.08292L34.6391 7.70635C34.0999 6.2262 32.4454 5.60903 31.071 6.37264C30.5107 6.68122 29.9292 7.46576 29.8552 7.99924C29.8341 8.16661 29.8024 8.21368 29.7231 8.21368C29.6649 8.21368 28.1796 6.79106 25.8326 4.4793C23.7499 2.42382 21.9368 0.656006 21.81 0.551403C21.3237 0.159138 20.8691 0.00222778 20.1925 0.00222778C19.8119 0.00222778 19.6533 0.0283852 19.4101 0.127758ZM21.7413 12.5548C24.8071 12.7849 27.7937 13.9512 30.2094 15.8498C31.9115 17.1887 33.2541 18.8153 34.2532 20.7401C34.7289 21.6606 34.9245 22.1365 35.3051 23.329C35.617 24.2914 35.8443 25.6199 35.95 27.1052C36.0028 27.8636 36.4363 27.7747 32.5669 27.7747C29.9504 27.7747 29.2051 27.759 29.1681 27.7067C29.1416 27.6753 29.0888 27.3824 29.0518 27.0686C28.909 25.8814 28.6447 24.9399 28.1954 24.0246C26.9797 21.5664 24.6961 19.8666 21.9368 19.375C21.2814 19.2599 19.5159 19.2442 18.8762 19.3488C16.2227 19.7829 14.0237 21.3049 12.6441 23.669C12.0785 24.6366 11.7666 25.6199 11.6133 26.9379L11.5234 27.7486L8.09813 27.7643C4.96883 27.7747 4.67281 27.7695 4.64109 27.691C4.58823 27.555 4.72567 25.8866 4.84196 25.1858C5.15912 23.3238 5.75115 21.6867 6.70263 20.034C8.1457 17.5287 10.6301 15.2692 13.326 14.014C15.1972 13.1405 16.8411 12.7064 18.9238 12.5391C19.426 12.4972 21.0964 12.5077 21.7413 12.5548Z" fill="#0036A5"/>
<ellipse cx="20.2057" cy="29.9714" rx="5.55028" ry="5.49173" fill="#FFCC29"/>
</g>
<defs>
<clipPath id="clip0_385_4910">
<rect width="200" height="42" fill="white"/>
</clipPath>
</defs>
</svg>
