<svg width="41" height="42" viewBox="0 0 41 42" fill="none" xmlns="http://www.w3.org/2000/svg">
<path d="M19.4101 0.12553C19.0348 0.282436 18.9344 0.345196 18.4851 0.727001C17.8561 1.26572 13.2572 5.70618 8.32543 10.5441C6.79778 12.04 4.47194 14.3204 3.15045 15.6174C1.82895 16.9093 0.650176 18.1018 0.528598 18.2639C0.401735 18.4313 0.237869 18.7242 0.163866 18.9177L0.0317159 19.2734L0.015858 29.6554L0 40.0374L0.206153 40.4558C0.597316 41.2351 1.31621 41.7999 2.10911 41.9412C2.55313 42.0196 37.8846 42.0196 38.3287 41.9412C39.2114 41.7843 39.9779 41.1305 40.3162 40.2413L40.4378 39.9328L40.4166 30.0476C40.4061 24.6082 40.3796 19.9481 40.3585 19.6918C40.3109 19.1479 40.1735 18.7504 39.8828 18.3215C39.7717 18.1541 38.8044 17.1604 37.7419 16.1091C36.6742 15.0578 35.5852 13.9647 35.3209 13.6823L34.8346 13.1645L34.8082 10.6226L34.7765 8.0807L34.6391 7.70412C34.0999 6.22397 32.4454 5.6068 31.071 6.37041C30.5107 6.679 29.9292 7.46353 29.8552 7.99701C29.8341 8.16438 29.8024 8.21145 29.7231 8.21145C29.6649 8.21145 28.1796 6.78883 25.8326 4.47707C23.7499 2.4216 21.9368 0.653778 21.81 0.549175C21.3237 0.15691 20.8691 0 20.1925 0C19.8119 0 19.6533 0.0261574 19.4101 0.12553ZM21.7413 12.5525C24.8071 12.7827 27.7937 13.949 30.2094 15.8476C31.9115 17.1865 33.2541 18.8131 34.2532 20.7378C34.7289 21.6584 34.9245 22.1343 35.3051 23.3268C35.617 24.2892 35.8443 25.6176 35.95 27.103C36.0028 27.8614 36.4363 27.7725 32.5669 27.7725C29.9504 27.7725 29.2051 27.7568 29.1681 27.7045C29.1416 27.6731 29.0888 27.3802 29.0518 27.0664C28.909 25.8791 28.6447 24.9377 28.1954 24.0224C26.9797 21.5642 24.6961 19.8644 21.9368 19.3727C21.2814 19.2577 19.5159 19.242 18.8762 19.3466C16.2227 19.7807 14.0237 21.3027 12.6441 23.6668C12.0785 24.6344 11.7666 25.6176 11.6133 26.9357L11.5234 27.7463L8.09813 27.762C4.96883 27.7725 4.67281 27.7673 4.64109 27.6888C4.58823 27.5528 4.72567 25.8844 4.84196 25.1835C5.15912 23.3216 5.75115 21.6845 6.70263 20.0318C8.1457 17.5265 10.6301 15.267 13.326 14.0118C15.1972 13.1383 16.8411 12.7042 18.9238 12.5368C19.426 12.495 21.0964 12.5055 21.7413 12.5525Z" fill="#0036A5"/>
<ellipse cx="20.2057" cy="29.9692" rx="5.55028" ry="5.49173" fill="#FFCC29"/>
</svg>
